<svg width="36" height="40" viewBox="0 0 36 40" fill="none" xmlns="http://www.w3.org/2000/svg">
<path d="M2.81838 28.1826C-0.401443 21.7521 0.655955 13.6971 5.98105 8.32395C10.3154 3.95044 16.4026 2.43172 21.9563 3.76781" stroke="#001D21" stroke-width="1.5" stroke-miterlimit="10" stroke-linecap="round"/>
<path d="M33.3115 12.9863C36.3694 19.3784 35.2739 27.2891 30.025 32.5854C24.5284 38.1316 16.2121 39.0832 9.7439 35.4498" stroke="#001D21" stroke-width="1.5" stroke-miterlimit="10" stroke-linecap="round"/>
<path d="M21.0704 1L22.5184 4.14316L19.4033 5.59459" stroke="#001D21" stroke-width="1.5" stroke-miterlimit="10" stroke-linecap="round"/>
<path d="M10.448 38.6042L9 35.461L12.115 34" stroke="#001D21" stroke-width="1.5" stroke-miterlimit="10" stroke-linecap="round"/>
<path d="M18.06 30.9891C23.8525 30.9891 28.5483 26.251 28.5483 20.4062C28.5483 14.5614 23.8525 9.82324 18.06 9.82324C12.2675 9.82324 7.57178 14.5614 7.57178 20.4062C7.57178 26.251 12.2675 30.9891 18.06 30.9891Z" stroke="#001D21" stroke-width="1.5" stroke-miterlimit="10"/>
<path d="M18.06 24.3383C20.2118 24.3383 21.9562 22.5782 21.9562 20.4069C21.9562 18.2357 20.2118 16.4756 18.06 16.4756C15.9082 16.4756 14.1638 18.2357 14.1638 20.4069C14.1638 22.5782 15.9082 24.3383 18.06 24.3383Z" stroke="#001D21" stroke-width="1.5" stroke-miterlimit="10"/>
</svg>
