<svg width="39" height="39" viewBox="0 0 39 39" fill="none" xmlns="http://www.w3.org/2000/svg">
<path d="M19.3333 25.1251C22.4399 25.1251 24.9583 22.6066 24.9583 19.5C24.9583 16.3934 22.4399 13.875 19.3333 13.875C16.2267 13.875 13.7083 16.3934 13.7083 19.5C13.7083 22.6066 16.2267 25.1251 19.3333 25.1251Z" stroke="#001D21" stroke-width="1.5" stroke-linecap="round" stroke-linejoin="round"/>
<path d="M19.3335 6.64502C20.7543 6.64502 21.906 5.49327 21.906 4.07251C21.906 2.65175 20.7543 1.5 19.3335 1.5C17.9127 1.5 16.761 2.65175 16.761 4.07251C16.761 5.49327 17.9127 6.64502 19.3335 6.64502Z" stroke="#001D21" stroke-width="1.5" stroke-linecap="round" stroke-linejoin="round"/>
<path d="M19.3335 37.5005C20.7543 37.5005 21.906 36.3487 21.906 34.928C21.906 33.5072 20.7543 32.3555 19.3335 32.3555C17.9127 32.3555 16.761 33.5072 16.761 34.928C16.761 36.3487 17.9127 37.5005 19.3335 37.5005Z" stroke="#001D21" stroke-width="1.5" stroke-linecap="round" stroke-linejoin="round"/>
<path d="M35.6157 6.64478C35.6157 8.06228 34.4682 9.21729 33.0432 9.21729C31.6257 9.21729 30.4707 8.06978 30.4707 6.64478C30.4707 5.21977 31.6182 4.07227 33.0432 4.07227C34.4682 4.07227 35.6157 5.22727 35.6157 6.64478Z" stroke="#001D21" stroke-width="1.5" stroke-linecap="round" stroke-linejoin="round"/>
<path d="M37.3333 19.5002C37.3333 20.9178 36.1858 22.0728 34.7607 22.0728C33.3357 22.0728 32.1882 20.9178 32.1882 19.5002C32.1882 18.0827 33.3357 16.9277 34.7607 16.9277C36.1783 16.9277 37.3333 18.0752 37.3333 19.5002Z" stroke="#001D21" stroke-width="1.5" stroke-linecap="round" stroke-linejoin="round"/>
<path d="M6.47828 19.5002C6.47828 20.9178 5.33077 22.0728 3.90576 22.0728C2.48076 22.0728 1.33325 20.9178 1.33325 19.5002C1.33325 18.0827 2.48076 16.9277 3.90576 16.9277C5.32327 16.9277 6.47828 18.0752 6.47828 19.5002Z" stroke="#001D21" stroke-width="1.5" stroke-linecap="round" stroke-linejoin="round"/>
<path d="M8.18824 6.64478C8.18824 8.06228 7.04073 9.21729 5.61572 9.21729C4.19822 9.21729 3.04321 8.06978 3.04321 6.64478C3.04321 5.22727 4.19072 4.07227 5.61572 4.07227C7.04073 4.07227 8.18824 5.22727 8.18824 6.64478Z" stroke="#001D21" stroke-width="1.5" stroke-linecap="round" stroke-linejoin="round"/>
<path d="M35.6157 32.3547C35.6157 33.7722 34.4682 34.9273 33.0432 34.9273C31.6182 34.9273 30.4707 33.7722 30.4707 32.3547C30.4707 30.9372 31.6182 29.7822 33.0432 29.7822C34.4607 29.7822 35.6157 30.9297 35.6157 32.3547Z" stroke="#001D21" stroke-width="1.5" stroke-linecap="round" stroke-linejoin="round"/>
<path d="M8.18824 32.3547C8.18824 33.7722 7.04073 34.9273 5.61572 34.9273C4.19072 34.9273 3.04321 33.7722 3.04321 32.3547C3.04321 30.9372 4.19072 29.7822 5.61572 29.7822C7.03323 29.7822 8.18824 30.9297 8.18824 32.3547Z" stroke="#001D21" stroke-width="1.5" stroke-linecap="round" stroke-linejoin="round"/>
<path d="M19.3333 6.64551V10.928" stroke="#001D21" stroke-width="1.5" stroke-linecap="round" stroke-linejoin="round"/>
<path d="M19.3333 28.0732V32.3558" stroke="#001D21" stroke-width="1.5" stroke-linecap="round" stroke-linejoin="round"/>
<path d="M7.47876 8.50098L12.4783 13.5005" stroke="#001D21" stroke-width="1.5" stroke-linecap="round" stroke-linejoin="round"/>
<path d="M31.1877 8.50098L26.1882 13.5005" stroke="#001D21" stroke-width="1.5" stroke-linecap="round" stroke-linejoin="round"/>
<path d="M7.47779 30.5005L12.4783 25.5" stroke="#001D21" stroke-width="1.5" stroke-linecap="round" stroke-linejoin="round"/>
<path d="M31.1887 30.5005L26.1882 25.5" stroke="#001D21" stroke-width="1.5" stroke-linecap="round" stroke-linejoin="round"/>
<path d="M6.47827 19.5H10.7608" stroke="#001D21" stroke-width="1.5" stroke-linecap="round" stroke-linejoin="round"/>
<path d="M27.9058 19.5H32.1883" stroke="#001D21" stroke-width="1.5" stroke-linecap="round" stroke-linejoin="round"/>
</svg>
