<svg width="50" height="50" viewBox="0 0 50 50" fill="none" xmlns="http://www.w3.org/2000/svg">
<mask id="mask0_1190_9065" style="mask-type:luminance" maskUnits="userSpaceOnUse" x="0" y="0" width="50" height="50">
<path d="M50 0H0V50H50V0Z" fill="white"/>
</mask>
<g mask="url(#mask0_1190_9065)">
<path d="M27.3438 17.9688C27.3438 16.2429 25.9446 14.8438 24.2188 14.8438C22.4929 14.8438 21.0938 16.2429 21.0938 17.9688C21.0938 19.6946 22.4929 21.0938 24.2188 21.0938C25.9446 21.0938 27.3438 19.6946 27.3438 17.9688ZM28.9062 17.9688C28.9062 20.5576 26.8076 22.6562 24.2188 22.6562C21.6299 22.6562 19.5312 20.5576 19.5312 17.9688C19.5312 15.3799 21.6299 13.2812 24.2188 13.2812C26.8076 13.2812 28.9062 15.3799 28.9062 17.9688Z" fill="#1C1C1C"/>
<path d="M27.3438 49.2188V26.5625C27.3438 26.2429 27.5383 25.9555 27.8351 25.8369C29.5538 25.1502 31.1228 24.3028 32.333 23.5798L32.4505 23.5067C33.6504 22.7328 34.375 21.3926 34.375 19.9472V12.8906C34.375 12.244 33.8498 11.7188 33.2031 11.7188C32.5565 11.7188 32.0312 12.244 32.0312 12.8906V18.3321C32.0312 19.9535 31.004 21.4225 29.4453 21.9296L29.3707 21.9528C28.1384 22.3256 26.4216 22.6582 24.2188 22.6582C22.5935 22.6582 21.0192 23.0288 19.8721 23.8733C18.762 24.6906 17.9688 26.0105 17.9688 28.1269V30.8847C17.9688 32.4137 18.5758 33.8792 19.6579 34.9613L20.8649 36.1683C21.0114 36.3148 21.0937 36.5135 21.0938 36.7207V49.2207C21.0938 49.6521 20.744 50.0019 20.3125 50.0019C19.881 50.0019 19.5312 49.6521 19.5312 49.2207V37.0443L18.553 36.0661C17.1781 34.6911 16.4062 32.8284 16.4062 30.8847V28.1269C16.4063 25.5559 17.403 23.7509 18.9457 22.6151C20.4514 21.5065 22.3928 21.0957 24.2188 21.0957C26.2619 21.0957 27.8264 20.7876 28.9183 20.4573H28.9185L29.0037 20.4294C29.8763 20.1251 30.4687 19.2832 30.4688 18.3321V12.8906C30.4688 11.381 31.6935 10.1562 33.2031 10.1562C34.7127 10.1562 35.9375 11.381 35.9375 12.8906V19.9472C35.9375 21.9787 34.8853 23.8724 33.1358 24.9203L33.135 24.9207C31.9945 25.6021 30.5304 26.3995 28.9062 27.0853V49.2188C28.9062 49.6502 28.5565 50 28.125 50C27.6935 50 27.3438 49.6502 27.3438 49.2188Z" fill="#1C1C1C"/>
<path d="M23.4375 49.2188V37.5C23.4375 37.0685 23.7873 36.7188 24.2188 36.7188C24.6502 36.7188 25 37.0685 25 37.5V49.2188C25 49.6502 24.6502 50 24.2188 50C23.7873 50 23.4375 49.6502 23.4375 49.2188Z" fill="#1C1C1C"/>
<path d="M10.1562 17.9688C10.1562 16.2429 8.75714 14.8438 7.03125 14.8438C5.30536 14.8438 3.90625 16.2429 3.90625 17.9688C3.90625 19.6946 5.30536 21.0938 7.03125 21.0938C8.75714 21.0938 10.1562 19.6946 10.1562 17.9688ZM11.7188 17.9688C11.7188 20.5576 9.62008 22.6562 7.03125 22.6562C4.44242 22.6562 2.34375 20.5576 2.34375 17.9688C2.34375 15.3799 4.44242 13.2812 7.03125 13.2812C9.62008 13.2812 11.7188 15.3799 11.7188 17.9688Z" fill="#1C1C1C"/>
<path d="M10 49.2188V36.7188C10 36.5412 10.0605 36.3689 10.1715 36.2303L11.1374 35.0245C11.9962 33.9484 12.5 32.461 12.5 30.8828V28.125C12.5 25.9467 11.8403 24.6132 10.9753 23.8171C10.0963 23.0081 8.89951 22.6563 7.65629 22.6562H6.40621C5.16299 22.6563 3.96617 23.0081 3.08723 23.8171C2.22219 24.6132 1.5625 25.9467 1.5625 28.125V30.8828L1.56403 31.0305C1.59428 32.5538 2.09135 33.9816 2.92416 35.0233L3.89099 36.2303L3.93028 36.2839C4.01621 36.4121 4.06246 36.5634 4.06246 36.7188V49.2188C4.06246 49.6502 3.71268 50 3.28121 50C2.84976 50 2.49996 49.6502 2.49996 49.2188V36.993L1.7046 36.0001L1.70422 35.9997C0.633827 34.6612 0.0379217 32.8913 0.00171661 31.0602L0 30.8828V28.125C0 25.6158 0.772015 23.8243 2.02904 22.6673C3.27215 21.5232 4.88776 21.0938 6.40621 21.0938H7.65629C9.17474 21.0938 10.7904 21.5232 12.0335 22.6673C13.2905 23.8243 14.0625 25.6158 14.0625 28.125V30.8828C14.0625 32.7774 13.4608 34.6181 12.3587 35.9991L11.5625 36.993V49.2188C11.5625 49.6502 11.2127 50 10.7813 50C10.3498 50 10 49.6502 10 49.2188Z" fill="#1C1C1C"/>
<path d="M6.25 49.2188V37.5C6.25 37.0685 6.59978 36.7188 7.03125 36.7188C7.46272 36.7188 7.8125 37.0685 7.8125 37.5V49.2188C7.8125 49.6502 7.46272 50 7.03125 50C6.59978 50 6.25 49.6502 6.25 49.2188Z" fill="#1C1C1C"/>
<path d="M46.0938 17.9688C46.0938 16.2429 44.6946 14.8438 42.9688 14.8438C41.2429 14.8438 39.8438 16.2429 39.8438 17.9688C39.8438 19.6946 41.2429 21.0938 42.9688 21.0938C44.6946 21.0938 46.0938 19.6946 46.0938 17.9688ZM47.6562 17.9688C47.6562 20.5576 45.5576 22.6562 42.9688 22.6562C40.3799 22.6562 38.2812 20.5576 38.2812 17.9688C38.2812 15.3799 40.3799 13.2812 42.9688 13.2812C45.5576 13.2812 47.6562 15.3799 47.6562 17.9688Z" fill="#1C1C1C"/>
<path d="M45.9375 49.2188V36.7188C45.9375 36.5412 45.998 36.3689 46.109 36.2303L47.0749 35.0245C47.9337 33.9484 48.4375 32.461 48.4375 30.8828V28.125C48.4375 25.9467 47.7778 24.6132 46.9128 23.8171C46.0338 23.0081 44.837 22.6563 43.5938 22.6562H42.3437C41.1005 22.6563 39.9037 23.0081 39.0247 23.8171C38.1597 24.6132 37.5 25.9467 37.5 28.125V30.8828L37.5015 31.0305C37.5318 32.5538 38.0289 33.9816 38.8617 35.0233L39.8285 36.2303C39.9395 36.3689 40 36.5412 40 36.7188V49.2188C40 49.6502 39.6502 50 39.2187 50C38.7873 50 38.4375 49.6502 38.4375 49.2188V36.993L37.6421 36.0001L37.6417 35.9997C36.5713 34.6612 35.9754 32.8913 35.9392 31.0602L35.9375 30.8828V28.125C35.9375 25.6158 36.7095 23.8243 37.9665 22.6673C39.2096 21.5232 40.8253 21.0938 42.3437 21.0938H43.5938C45.1122 21.0938 46.7279 21.5232 47.971 22.6673C49.228 23.8243 50 25.6158 50 28.125V30.8828C50 32.7774 49.3983 34.6181 48.2962 35.9991L47.5 36.993V49.2188C47.5 49.6502 47.1502 50 46.7188 50C46.2873 50 45.9375 49.6502 45.9375 49.2188Z" fill="#1C1C1C"/>
<path d="M42.1875 49.2188V37.5C42.1875 37.0685 42.5373 36.7188 42.9688 36.7188C43.4002 36.7188 43.75 37.0685 43.75 37.5V49.2188C43.75 49.6502 43.4002 50 42.9688 50C42.5373 50 42.1875 49.6502 42.1875 49.2188Z" fill="#1C1C1C"/>
<path d="M28.125 3.125C28.125 2.26155 27.4259 1.5625 26.5625 1.5625H14.8438C13.9803 1.5625 13.2812 2.26155 13.2812 3.125V7.03125C13.2812 8.29099 13.8316 9.48651 14.7877 10.3071L16.8446 12.0701L16.4169 9.50336C16.3792 9.27686 16.443 9.04515 16.5915 8.86993C16.7399 8.69476 16.9579 8.59375 17.1875 8.59375H26.5625C27.4259 8.59375 28.125 7.8947 28.125 7.03125V3.125ZM29.6875 7.03125C29.6875 8.75764 28.2889 10.1562 26.5625 10.1562H18.1097L18.7393 13.9341L18.7471 13.9948C18.7736 14.2979 18.6209 14.5915 18.3527 14.7429C18.0665 14.9043 17.7097 14.8695 17.4603 14.6557L13.7709 11.4935L13.7705 11.4933C12.469 10.3764 11.7188 8.74788 11.7188 7.03125V3.125C11.7188 1.39861 13.1174 0 14.8438 0H26.5625C28.2889 0 29.6875 1.39861 29.6875 3.125V7.03125Z" fill="#1C1C1C"/>
</g>
</svg>
