<svg width="40" height="41" viewBox="0 0 40 41" fill="none" xmlns="http://www.w3.org/2000/svg">
<path d="M33.7578 12.386L36.7813 11.5703" stroke="#001D21" stroke-width="1.5" stroke-linecap="round" stroke-linejoin="round"/>
<path d="M22.3596 26.5471L29.5486 16.041" stroke="#001D21" stroke-width="1.5" stroke-linecap="round" stroke-linejoin="round"/>
<path d="M11.0815 22.5557L17.259 27.08" stroke="#001D21" stroke-width="1.5" stroke-linecap="round" stroke-linejoin="round"/>
<path d="M1.54346 25.0133L5.90468 21.9463" stroke="#001D21" stroke-width="1.5" stroke-linecap="round" stroke-linejoin="round"/>
<path d="M8.65638 24.1653C10.11 24.1653 11.2883 22.9869 11.2883 21.5333C11.2883 20.0797 10.11 18.9014 8.65638 18.9014C7.20278 18.9014 6.02441 20.0797 6.02441 21.5333C6.02441 22.9869 7.20278 24.1653 8.65638 24.1653Z" stroke="#001D21" stroke-width="1.5" stroke-linecap="round" stroke-linejoin="round"/>
<path d="M19.88 30.0598C21.3336 30.0598 22.512 28.8815 22.512 27.4279C22.512 25.9743 21.3336 24.7959 19.88 24.7959C18.4264 24.7959 17.248 25.9743 17.248 27.4279C17.248 28.8815 18.4264 30.0598 19.88 30.0598Z" stroke="#001D21" stroke-width="1.5" stroke-linecap="round" stroke-linejoin="round"/>
<path d="M31.4303 16.846C32.8839 16.846 34.0623 15.6676 34.0623 14.214C34.0623 12.7604 32.8839 11.582 31.4303 11.582C29.9767 11.582 28.7983 12.7604 28.7983 14.214C28.7983 15.6676 29.9767 16.846 31.4303 16.846Z" stroke="#001D21" stroke-width="1.5" stroke-linecap="round" stroke-linejoin="round"/>
<path d="M19.9997 39.5003C30.4932 39.5003 38.9998 30.9937 38.9998 20.5002C38.9998 10.0067 30.4932 1.5 19.9997 1.5C9.50617 1.5 0.999512 10.0067 0.999512 20.5002C0.999512 30.9937 9.50617 39.5003 19.9997 39.5003Z" stroke="#001D21" stroke-width="1.5" stroke-linecap="round" stroke-linejoin="round"/>
</svg>
