<svg width="41" height="41" viewBox="0 0 41 41" fill="none" xmlns="http://www.w3.org/2000/svg">
<path d="M30.1824 5.33398C34.7632 7.88194 38.0302 12.2499 38.8168 17.3544" stroke="#001D21" stroke-width="1.5" stroke-linecap="round" stroke-linejoin="round"/>
<path d="M11.159 5.33398C6.57824 7.88194 3.31117 12.2499 2.52466 17.3544" stroke="#001D21" stroke-width="1.5" stroke-linecap="round" stroke-linejoin="round"/>
<path d="M28.7821 37.9805C26.3448 39.2718 23.5877 39.9998 20.6663 39.9998C17.745 39.9998 14.9879 39.2718 12.5505 37.9805" stroke="#001D21" stroke-width="1.5" stroke-linecap="round" stroke-linejoin="round"/>
<path d="M7.70173 27C10.4243 27 13.7519 28.8286 13.7519 30.0853V33.0666C11.6862 34.4619 9.87113 34.7999 7.70173 34.7999C5.53233 34.7999 3.7173 34.4619 1.65161 33.0666V30.0853C1.65161 28.8373 4.97918 27 7.70173 27Z" stroke="#001D21" stroke-width="1.5" stroke-linejoin="round"/>
<path d="M7.70209 18.333C9.49119 18.333 11.1593 19.7283 11.1593 21.453V23.8796C11.1593 25.6042 9.49119 26.9995 7.70209 26.9995C5.91298 26.9995 4.24487 25.6042 4.24487 23.8796V21.453C4.24487 19.7283 5.91298 18.333 7.70209 18.333Z" stroke="#001D21" stroke-width="1.5" stroke-linejoin="round"/>
<path d="M20.6663 9.66699C23.3889 9.66699 26.7165 11.4956 26.7165 12.7523V15.7336C24.9878 17.1289 22.8357 17.4669 20.6663 17.4669C18.4969 17.4669 16.3448 17.1289 14.6162 15.7336V12.7523C14.6162 11.5043 17.9438 9.66699 20.6663 9.66699Z" stroke="#001D21" stroke-width="1.5" stroke-linejoin="round"/>
<path d="M20.6662 1C22.4553 1 24.1234 2.39531 24.1234 4.11995V6.54657C24.1234 8.27121 22.4553 9.66652 20.6662 9.66652C18.8771 9.66652 17.209 8.27121 17.209 6.54657V4.11995C17.209 2.39531 18.8771 1 20.6662 1Z" stroke="#001D21" stroke-width="1.5" stroke-linejoin="round"/>
<path d="M33.6312 27C36.3537 27 39.6813 28.8286 39.6813 30.0853V33.0666C37.6156 34.4619 35.8006 34.7999 33.6312 34.7999C31.4618 34.7999 29.6467 34.4619 27.5811 33.0666V30.0853C27.5811 28.8373 30.9086 27 33.6312 27Z" stroke="#001D21" stroke-width="1.5" stroke-linejoin="round"/>
<path d="M33.631 18.333C35.4201 18.333 37.0883 19.7283 37.0883 21.453V23.8796C37.0883 25.6042 35.4201 26.9995 33.631 26.9995C31.8419 26.9995 30.1738 25.6042 30.1738 23.8796V21.453C30.1738 19.7283 31.8419 18.333 33.631 18.333Z" stroke="#001D21" stroke-width="1.5" stroke-linejoin="round"/>
</svg>
