<svg width="41" height="40" viewBox="0 0 41 40" fill="none" xmlns="http://www.w3.org/2000/svg">
<path d="M25.5198 10.0332H15.8135C12.9892 10.0332 10.6997 12.3227 10.6997 15.1469V24.8533C10.6997 27.6775 12.9892 29.967 15.8135 29.967H25.5198C28.344 29.967 30.6335 27.6775 30.6335 24.8533V15.1469C30.6335 12.3227 28.344 10.0332 25.5198 10.0332Z" stroke="#001D21" stroke-width="1.5" stroke-linecap="round" stroke-linejoin="round"/>
<path d="M22.4608 17H19.5392C18.6891 17 18 17.6891 18 18.5392V21.4608C18 22.3109 18.6891 23 19.5392 23H22.4608C23.3109 23 24 22.3109 24 21.4608V18.5392C24 17.6891 23.3109 17 22.4608 17Z" stroke="#001D21" stroke-width="1.5" stroke-linecap="round" stroke-linejoin="round"/>
<path d="M12.1654 1H10.2763C5.52081 1 1.6665 4.85431 1.6665 9.60976V11.4989" stroke="#001D21" stroke-width="1.5" stroke-linecap="round" stroke-linejoin="round"/>
<path d="M39.6668 11.4988V9.60965C39.6668 4.85419 35.8125 1.01074 31.0679 1.01074H29.1787" stroke="#001D21" stroke-width="1.5" stroke-linecap="round" stroke-linejoin="round"/>
<path d="M29.1677 38.9998H31.0569C35.8123 38.9998 39.6558 35.1455 39.6558 30.4009V28.5117" stroke="#001D21" stroke-width="1.5" stroke-linecap="round" stroke-linejoin="round"/>
<path d="M1.6665 28.501V30.3901C1.6665 35.1456 5.52081 38.9999 10.2763 38.9999H12.1654" stroke="#001D21" stroke-width="1.5" stroke-linecap="round" stroke-linejoin="round"/>
</svg>
