<?xml version="1.0" encoding="UTF-8"?>
<svg id="Layer_2" data-name="Layer 2" xmlns="http://www.w3.org/2000/svg" viewBox="0 0 583.33 383.33">
  <defs>
    <style>
      .cls-1 {
        fill: #fff;
      }
    </style>
  </defs>
  <g id="Layer_1-2" data-name="Layer 1">
    <path class="cls-1" d="M558.33,383.33H25c-13.81,0-25-11.19-25-25s11.19-25,25-25h533.33c13.81,0,25,11.19,25,25s-11.19,25-25,25ZM558.33,216.67H25c-13.81,0-25-11.19-25-25s11.19-25,25-25h533.33c13.81,0,25,11.19,25,25s-11.19,25-25,25ZM558.33,50H25C11.19,50,0,38.81,0,25S11.19,0,25,0h533.33c13.81,0,25,11.19,25,25s-11.19,25-25,25Z"/>
  </g>
</svg>