<svg width="108" height="108" viewBox="0 0 108 108" fill="none" xmlns="http://www.w3.org/2000/svg">
<path d="M54 108C24.1758 108 0 83.8242 0 54C0 24.1758 24.1758 0 54 0C83.8242 0 108 24.1758 108 54C108 83.8242 83.8242 108 54 108ZM46.5588 34.641C46.2338 34.4242 45.8561 34.2995 45.4659 34.2804C45.0757 34.2612 44.6875 34.3483 44.3429 34.5322C43.9982 34.7162 43.7099 34.9902 43.5087 35.3251C43.3074 35.6599 43.2007 36.0431 43.2 36.4338V71.5662C43.2007 71.9569 43.3074 72.3401 43.5087 72.6749C43.7099 73.0098 43.9982 73.2838 44.3429 73.4678C44.6875 73.6517 45.0757 73.7388 45.4659 73.7196C45.8561 73.7005 46.2338 73.5758 46.5588 73.359L72.9054 55.7982C73.2017 55.601 73.4447 55.3337 73.6127 55.02C73.7808 54.7063 73.8687 54.3559 73.8687 54C73.8687 53.6441 73.7808 53.2937 73.6127 52.98C73.4447 52.6663 73.2017 52.399 72.9054 52.2018L46.5588 34.641Z" fill="white" fill-opacity="0.48"/>
</svg>
