<?xml version="1.0" encoding="UTF-8"?>
<svg id="Layer_1" xmlns="http://www.w3.org/2000/svg" version="1.1" viewBox="0 0 912 1082">
  <!-- Generator: Adobe Illustrator 29.4.0, SVG Export Plug-In . SVG Version: 2.1.0 Build 152)  -->
  <defs>
    <style>
      .st0 {
        fill: #fff;
      }
    </style>
  </defs>
  <path class="st0" d="M737.8,1074.5c4.2,2.2,8.3,4.4,12.5,6.6-.3,5.1-.5,10.3-.9,15.2-.6,7.5,4,12.6,9,17.2,17.9,16.2,44.6,25.4,66,36.5,6.2,3.2,11.4,7.6,9,14.6-1.1,3.1-1.1,7.4-1.6,9.5-.6-2.1-1.1-5.5-1.7-9.7-.3-1.9-.5-4.1-.8-6.4-.3-2.3-.5-4.5-7.8-8.3-23.5-12.2-49.5-22.3-69-38.7-7.3-6.1-14-12.8-15.3-23.2-.5-4.4.5-8.9.5-13.3h0Z"/>
  <path class="st0" d="M718.7,1064c4.1,2.3,8.2,4.6,12.4,6.9-.3,5.5-.9,11.3-.9,16.6,0,9,11.4,17.1,17.9,22.1,19.2,14.9,43.5,24,63.8,37.9,5.3,3.6,3.3,5.8,3.1,8.2-.2,2.5-.5,4.8-.7,6.9-.5,4.7-1.1,8.6-1.6,11.4-.5-2.8-1.1-6.8-1.7-11.6-.3-2.2-.5-4.6-.8-7.2-.2-2.4,1.4-4.8-2.5-8.2-7.9-6.7-18.3-11.1-27.4-16.2-12.9-7.2-25.7-14.8-37.3-23.5-8.2-6.2-21.5-15.1-23.4-25.2-1.1-5.6-.8-12.1-.9-18.2h0Z"/>
  <path class="st0" d="M699.6,1052.8c4,2.4,8.1,4.8,12.2,7.2-1,6.9-2,12.5,0,18.5,3.5,10.8,17.8,20.4,27.7,27.7,11.1,8.2,23.2,15.6,35.3,22.8,7.1,4.2,17.5,8.5,21.4,15.2,1.7,2.8-.1,5.7-.4,8.4-.2,2.8-.5,5.4-.7,7.8-.5,5.4-1,10-1.6,13.6-1.2-10.3-.3-22.1-3.1-30.6-2.1-6.5-13.1-11.4-19.5-15.4-12.2-7.6-24.5-15.3-35.9-23.8-11.5-8.5-25.3-18.4-31.9-30.3-3.8-6.8-3.6-12.8-3.4-21.1h0Z"/>
  <path class="st0" d="M680.6,1041.1c4,2.5,8,5,12,7.4-1.2,9.1-.5,15,4.2,22.3,8.1,12.5,22.4,22.9,35,32.3,9.5,7.1,19.6,13.9,29.4,20.8,5.4,3.8,15.8,9.6,16.1,16,.4,10-1.6,22.7-2.9,34-1.4-11.6-2.3-23.5-3-35-.4-6-5-9.5-9.1-12.9-10.5-8.6-23.4-16.4-34.6-24.9-13.5-10.2-27.6-21.4-37.8-34.2-6.2-7.8-9.2-15.4-9.2-25.9h0Z"/>
  <path class="st0" d="M661.5,1028.9c3.9,2.6,7.9,5.1,11.8,7.7-.7,11.3,4.7,19.9,11.5,28,11.1,13.3,25.5,24.8,39.5,35.6,10.1,7.8,21.5,15,30.5,24,4.9,4.9,3.5,7.8,3.2,11.1-.8,12.9-1.7,25.8-2.9,38.7-1.3-13.2-2.2-26.5-3-39.8-.2-3.7,1.4-7.1-3.3-12.3-8.2-9.1-19.3-16.2-28.9-23.9-14.4-11.4-28.8-23.5-40.9-36.8-7.9-8.8-17.1-19.6-17.6-32.4Z"/>
  <path class="st0" d="M642.4,1016.2c4.5,3.1,7,4.7,11.6,7.8,0,13.2,12.8,26.3,21.1,35.2,12.6,13.7,26.9,25.7,41.1,37.6,7.5,6.2,19.3,13.4,22.9,22.3,1.6,4,0,7.5-.3,11-.8,14.6-1.7,29.2-2.9,43.8-1.3-14.9-2.1-29.9-3-44.9-.2-4.1.6-8.3-.7-12.6-2.7-8.7-13.8-15.9-20.7-22-15.2-13.2-30.7-26.3-44.5-41.2-9.6-10.4-21.4-22.9-24.7-37.2h0Z"/>
  <path class="st0" d="M625.9,1004.7c3.6,2.5,5.5,3.8,9.5,6.6,11.3,33.3,48.2,58.2,71.5,81.5,10.3,10.3,13.9,17.7,12.8,32-1.3,15.9-1.7,32.8-2.8,49.2-1.2-16.8-2.5-34-2.9-50.4-.3-14.6-1.9-22.4-12.3-33.5-24.9-26.5-58.4-51.3-75.8-85.4h0Z"/>
  <path class="st0" d="M612.6,995.4c2.8,2,4.3,3.1,7.5,5.3,19,34.1,54.1,58.1,75.3,87.1,4.1,5.6,6.3,10.8,5.6,18.1-.4,4.2-.4,8.8-.6,13.2-.8,18.3-1.7,36.7-2.8,55-1.2-18.7-2-37.4-2.9-56.1-.2-5-.7-10.3-.7-15.1,0-7-1.1-12.4-4.9-18.1-19.9-30.7-54.9-56-76.7-89.3h0Z"/>
  <path class="st0" d="M601.9,987.7c2.3,1.6,3.4,2.5,6,4.3,11.7,17.2,25.2,33,39.2,48.4,11.4,12.6,28,25.9,33.8,40.4,2.3,5.7,1.6,11,1,17.3-.5,4.9-.4,10.4-.6,15.6-.8,20.1-1.7,40.2-2.7,60.4-1.1-20.7-2-41.4-2.8-62.2-.2-5.5-.6-11.1-.7-16.4,0-6.1.4-12.2-1.1-17.9-4-14.5-20.7-28.3-31.2-40-14.3-16-28.3-32.3-40.8-49.8h0Z"/>
  <path class="st0" d="M593.1,981.3c1.9,1.4,2.8,2.1,4.9,3.6,13,18,27.4,34.8,41.8,51.8,8.2,9.7,22.8,23,23.5,35.8.6,11.1-.8,23.3-1.3,34.9-1,22.1-1.7,44.4-2.7,66.6-1.1-23-2-46.1-2.8-69.2-.4-12.2-.7-24.6-1.3-36.6-.7-13.7-15-27.6-23.1-37.6-13.2-16.3-26.6-32.4-39-49.2Z"/>
  <path class="st0" d="M585.3,975.6c1.7,1.2,2.5,1.9,4.3,3.2,13.9,18.9,29.8,37,43.1,55.8,5.9,8.3,11.7,17.3,11.3,28.1-.5,12.4-.8,25-1.2,37.5-.8,24.6-1.7,49.2-2.6,73.9-1-25.2-1.9-50.5-2.8-75.8-.4-13.2-1-26.6-1.3-39.6-.2-10.4-3.4-18.8-8.9-27.4-12.2-19-28.1-37-41.9-55.6h0Z"/>
  <path class="st0" d="M577.9,970.2c1.7,1.2,2.5,1.8,4.1,3.1,13,17.8,29.2,35.4,38.6,54.1,4.2,8.4,4.7,16,4.1,25.6-.8,13.1-.8,27-1.2,40.5-.8,26.9-1.7,53.8-2.6,80.6-1-27.5-1.9-55-2.7-82.5-.4-14.2-1.2-28.8-1.3-42.6,0-9.2.3-17.3-3.1-25.7-7.6-18.5-23.7-35.9-36-53h0Z"/>
  <path class="st0" d="M570.1,964.3c1.8,1.3,2.7,2,4.4,3.3,10.8,15.4,27.1,32.8,31,50.4,1.8,8,.5,16.4,0,24.8-.7,14.2-.8,29.1-1.2,43.6-.8,29.2-1.6,58.4-2.6,87.6-1-29.5-1.8-59.1-2.6-88.6-.4-15.4-.9-30.9-1.2-46.2-.2-8.7,0-17.6-.7-26.1-1.5-17.1-17.6-34.8-27.1-48.8h0Z"/>
  <path class="st0" d="M561.2,957.6c2.1,1.6,3.1,2.3,5,3.8,8.2,12.9,21,29.2,20.8,45.3-.1,8.7-.4,17.6-.6,26.3-.4,15.7-.8,31.5-1.2,47.2-.8,31.3-1.6,62.5-2.5,93.8-.9-31.9-1.8-63.8-2.6-95.7-.4-16.5-.8-32.9-1.2-49.4-.2-9.3-.4-18.6-.7-27.9-.4-15.9-9.1-30.2-17-43.4h0Z"/>
  <path class="st0" d="M550.4,949.5c2.5,1.9,3.7,2.8,6,4.5,6.5,12.5,11.9,24.9,12.5,39.1.4,9.8-1.6,19.6-1.8,29.4-.4,16.8-.8,33.7-1.2,50.5-.8,33.7-1.6,67.3-2.4,101-.9-34.7-1.8-69.3-2.6-104-.4-17-.8-34-1.2-51-.2-10-.5-20-.7-29.9-.2-14.4-2.6-26.4-8.7-39.6h0Z"/>
  <path class="st0" d="M536.9,939.2c3.1,2.4,4.6,3.5,7.3,5.6,4.5,12.9,4.5,24,4.1,37.4-.3,10-.4,20.2-.6,30.2-.4,17.4-.7,34.8-1.1,52.2-.8,36.5-1.6,73-2.4,109.4-.9-36.7-1.7-73.5-2.5-110.2-.4-18.2-.8-36.5-1.2-54.7-.2-10.7-.6-21.5-.7-32-.1-12.9.3-25-3-37.8h0Z"/>
  <path class="st0" d="M520.1,926.2c3.8,3,5.6,4.4,9,7,1.3,12.3.4,24.4,0,36.6-.3,10.7-.4,21.6-.6,32.4-.4,18.6-.7,37.3-1.1,55.9-.8,38.6-1.5,77.2-2.4,115.8-1.8-82.6-3.1-165.2-5-247.8Z"/>
  <path class="st0" d="M501.1,911.4c3.8,3,5.7,4.5,9.6,7.4-1.5,85.1-3,170.1-4.7,255.1-1.8-87.5-3.3-175.1-4.9-262.6h0Z"/>
  <path class="st0" d="M482,896.5c3.8,2.9,5.6,4.4,9.4,7.3-1.5,90.1-3,180.1-4.6,270.2-1.7-92.5-3.3-185-4.8-277.5h0Z"/>
  <path class="st0" d="M462.9,881.5c3.7,2.9,5.5,4.3,9.2,7.2-1.5,95.1-2.9,190.2-4.5,285.3-1.7-97.5-3.2-195-4.7-292.5Z"/>
  <path class="st0" d="M443.8,866.6c3.6,2.8,5.4,4.2,9,7.1-1.5,100.1-2.9,200.2-4.4,300.4-1.6-102.5-3.2-204.9-4.6-307.4h0Z"/>
  <path class="st0" d="M424.7,851.7c3.5,2.8,5.3,4.1,8.9,6.9-1.4,105.1-2.8,210.3-4.3,315.4-1.6-107.4-3.1-214.9-4.5-322.3h0Z"/>
  <path class="st0" d="M405.7,836.9c3.5,2.7,5.2,4,8.7,6.7-1.4,110.1-2.8,220.3-4.2,330.4-1.6-112.4-3-224.7-4.4-337.1h0Z"/>
  <path class="st0" d="M386.6,822.2c3.4,2.6,5.1,3.9,8.5,6.5-1.4,115.1-2.7,230.2-4.2,345.3-1.5-117.2-2.9-234.5-4.3-351.8h0Z"/>
  <path class="st0" d="M367.5,807.8c3.3,2.5,5,3.8,8.3,6.3-1.3,120-2.6,240-4.1,359.9-1.5-122.1-2.8-244.1-4.3-366.2h0Z"/>
  <path class="st0" d="M348.4,793.6c3.3,2.4,4.9,3.6,8.1,6-1.3,124.8-2.6,249.6-4,374.4-1.5-126.8-2.8-253.6-4.2-380.4Z"/>
  <path class="st0" d="M329.3,779.7c3.2,2.3,4.8,3.5,8,5.8-1.3,129.5-2.6,259-3.9,388.5-1.4-131.4-2.7-262.9-4.1-394.3Z"/>
  <path class="st0" d="M310.3,766.1c3.1,2.2,4.7,3.3,7.8,5.5-1.2,134.1-2.5,268.3-3.8,402.4-1.4-136-2.7-271.9-4-407.9Z"/>
  <path class="st0" d="M291.2,752.9c3,2.1,4.6,3.1,7.6,5.2-1.2,138.6-2.5,277.2-3.7,415.9-1.4-140.4-2.7-280.7-3.9-421.1h0Z"/>
  <path class="st0" d="M272.1,740.2c3,2,4.5,2.9,7.4,4.9-1.2,143-2.4,285.9-3.6,428.9-1.3-144.6-2.5-289.2-3.8-433.8h0Z"/>
  <path class="st0" d="M253,727.9c2.9,1.8,4.4,2.8,7.3,4.6-1.2,147.2-2.4,294.3-3.6,441.5-1.3-148.7-2.5-297.4-3.7-446.1Z"/>
  <path class="st0" d="M233.9,716.1c2.8,1.7,4.3,2.6,7.1,4.3-1.1,151.2-2.3,302.4-3.5,453.5-1.2-152.6-2.4-305.2-3.6-457.8h0Z"/>
  <path class="st0" d="M214.9,705c2.8,1.6,4.1,2.4,6.9,4-1.1,155-2.3,310-3.4,465-1.2-156.3-2.4-312.7-3.5-469h0Z"/>
  <path class="st0" d="M195.8,694.4c2.7,1.4,4,2.2,6.7,3.7-1.1,158.6-2.2,317.3-3.3,475.9-1.2-159.9-2.3-319.7-3.4-479.6Z"/>
  <path class="st0" d="M176.7,684.6c2.6,1.3,3.9,2,6.6,3.3-1.1,162-2.1,324.1-3.2,486.1-1.1-163.1-2.2-326.3-3.4-489.4Z"/>
  <path class="st0" d="M157.6,675.4c2.6,1.2,3.8,1.8,6.4,3-1,165.2-2.1,330.4-3.1,495.6-1.1-166.2-2.2-332.4-3.3-498.6Z"/>
  <path class="st0" d="M138.5,667c2.5,1,3.7,1.6,6.2,2.6-1,168.1-2,336.2-3,504.4-1.1-169-2.1-338-3.2-507h0Z"/>
  <path class="st0" d="M119.5,659.4c2.4.9,3.6,1.4,6,2.3-1,170.8-2,341.5-3,512.3-1-171.5-2-343.1-3.1-514.6Z"/>
  <path class="st0" d="M100.4,652.7c2.3.8,3.5,1.2,5.9,2-1,173.1-1.9,346.2-2.9,519.3-1-173.8-2-347.5-3-521.3Z"/>
  <path class="st0" d="M81.3,646.9c2.3.6,3.4,1,5.7,1.6-.9,175.2-1.8,350.3-2.8,525.5-1-175.7-1.9-351.4-2.9-527.1Z"/>
  <path class="st0" d="M62.2,642c2.2.5,3.3.8,5.5,1.3-.9,176.9-1.8,353.8-2.7,530.7-.9-177.3-1.9-354.7-2.8-532h0Z"/>
  <path class="st0" d="M43.1,638.1c2.1.4,3.2.6,5.3,1-.9,178.3-1.7,356.6-2.6,534.9-.9-178.6-1.8-357.2-2.7-535.9h0Z"/>
  <path class="st0" d="M24,635.3c2.1.2,3.1.4,5.2.7-.9,179.3-1.6,358.7-2.5,538-.8-179.6-1.7-359.1-2.6-538.7Z"/>
  <path class="st0" d="M5,633.6c2,.1,3,.2,5,.3-.8,180-1.6,360.1-2.4,540.1-.8-180.1-1.7-360.3-2.5-540.4Z"/>
  <path class="st0" d="M795.1,1101.8c4.3,1.8,8.7,3.6,13.1,5.3-.6-7.5-1.1-15-1.7-22.5-.3-3.5.3-6.4,8.8-4.9,12,2.1,23.8,6.1,35.6,9,10.5,2.6,21.1,5.2,31.9,6.3,8.4.9,8.7-.6,8.4-2.1-.6-3.2-1.2-5.4-1.8-6.3-.6.5-1.2,2.3-1.8,5.1-.3,1.3-.3,2.9-7.8,2.1-11.2-1.1-22.4-3.9-33.2-6.8-12.6-3.4-25.8-8.7-38.1-10.7-3.3-.5-11.1-2.5-11.6,3.5-.5,7.2-1.2,14.6-1.7,21.9h0Z"/>
  <path class="st0" d="M776,1093.5c4.3,2,8.6,3.9,12.9,5.8-.5-8.2-1.5-16.9-1.7-24.6-.2-6.4,10.5-3.3,13.5-2.7,13.4,2.9,27.5,8.9,41.1,12.8,8.6,2.5,17.7,5,26.8,5.4,5.4.2,3.6-2.2,3.3-3.8-.6-3.6-1.2-6.2-1.7-7.6-.6.8-1.2,3-1.8,6.2-.3,1.4,1.3,3.8-3.2,3.8-9.8,0-19.9-3.5-29.1-6.3-6.9-2.1-56.5-22.4-58.6-12.9-1.5,6.8-1,16-1.5,24h0Z"/>
  <path class="st0" d="M756.9,1084.3c4.2,2.1,8.5,4.2,12.7,6.2-.8-9-3.2-19.6-1.9-27,1.6-9.4,53.9,12.6,61,15,6.4,2.2,18.7,8,24.3,5.4,1.6-.8,0-3.9-.3-5.7-.6-4.1-1.1-7.3-1.7-9.2-.6,1.3-1.2,3.9-1.8,7.5-.3,1.6.2,4.6-.8,5.2-4.3,3.2-19.8-4-27.2-6.7-14.8-5.4-29.5-12-44.7-16.7-4.4-1.4-16.6-5.4-18.4-.3-2.4,7-1.2,17.4-1.4,26.3h0Z"/>
  <path class="st0" d="M737.8,1074.5c4.2,2.2,8.3,4.4,12.5,6.6-.8-9.7-3.9-21-1.9-29.5,2.4-10.5,55.3,14.7,62.3,17.4,6.4,2.5,21.5,8.5,23.6,6.1.6-.7-.5-4.6-.7-6.6-.6-4.7-1.1-8.5-1.7-11.1-.6,1.8-1.2,5-1.7,9.1-.3,1.8.3,5.2-.8,5.9-4.6,3.1-20.1-5-27.5-8.1-7.2-3-59.4-29.4-62.6-18.3-2.4,8.2-1.1,19.2-1.4,28.7h0Z"/>
  <path class="st0" d="M718.7,1064c4.1,2.3,8.2,4.6,12.4,6.9-.6-10.7-2.3-22.2-1.8-32.1.5-12.1,52.7,13.8,58.5,16.3,7.7,3.3,17.2,8.5,25.5,8.3,3.6,0,1.3-4.1,1.1-6.4-.6-5.4-1.1-9.9-1.7-13.2-.6,2.5-1.1,6.2-1.7,10.9-.3,2,1.5,5.8-3.2,5.2-10.3-1.2-20.8-6.8-30.3-11.1-13.9-6.4-28.4-15-42.4-19-4-1.1-14.2-4.7-14.8,3.1-.8,10.1-1.1,20.8-1.6,31.2h0Z"/>
  <path class="st0" d="M699.6,1052.8c4,2.4,8.1,4.8,12.2,7.2-.5-11.6-.5-23.8-1.6-34.8-.8-8,7.3-6.9,11.6-5.9,12.4,2.7,25.8,11.1,38.3,16.8,9.2,4.2,18.7,8.6,28.5,11.4,7.2,2.1,6.7-.9,6.4-3.7-.5-5.2-1-10.4-1.6-15.6-.6,3.2-1.1,7.6-1.7,13-.3,2.5-.7,4.8-8.9,1.9-11.6-4.1-22.8-9.7-33.9-15-12.1-5.9-25.5-14.6-37.4-16.5-4.9-.8-10.6,0-10.4,7.2.3,10.4-1.1,22.6-1.6,33.9h0Z"/>
  <path class="st0" d="M680.6,1041.1c4,2.5,8,5,12,7.4-.5-12.6-1.2-25.3-1.5-37.7-.1-4.8-.9-12,6.6-10.9,11.1,1.6,21.9,7.7,32,12.5,6,2.9,44.9,22.9,46.4,17.1,1-4-1-12.1-1.6-18.1-.6,5.1-.1,12.4-1.7,15.3-1.8,3.4-17-4.1-21.3-6.2-11.1-5.4-22.1-11.5-33.1-17-9.3-4.7-20.9-11.9-30.7-11.6-6,.2-5.3,7.6-5.4,12.3-.4,12.1-1.1,24.5-1.6,36.8h0Z"/>
  <path class="st0" d="M661.5,1028.9c3.9,2.6,7.9,5.1,11.8,7.7-.5-13.6-.7-27.6-1.5-40.8-.3-5.2-2.1-13.8,1.8-16.3,5.5-3.5,18.5,3.5,25.3,6.8,10.6,5.1,21.1,11.2,31.7,16.8,7.3,3.9,18.7,11.9,25.5,10.3,2.3-.6.3-6.6,0-9.9-.3-3.7-.6-7.1-.8-10.3-.3,2.6-.6,5.4-.9,8.6-.3,2.8,1.4,8.4-1.8,8.4-9.3,0-20.6-8.6-29.3-13.5-11.7-6.6-23.3-13.8-35.1-19.5-5.8-2.8-19.3-9.5-23.4-5-3,3.3-1.5,11.5-1.6,16.9-.1,12.9-1.1,26.6-1.6,39.9Z"/>
  <path class="st0" d="M642.4,1016.2c4.5,3.1,7,4.7,11.6,7.8-.5-14.7-.8-29.6-1.5-44.1-.3-6.6-1.1-13.7-.7-20,.6-8.1,13.3-2.8,17.2-1.3,21.6,8.4,41.1,26,63.5,33.6,6.5,2.2,4.5-3.5,4.2-7.3-.3-4.2-.6-8.2-.8-11.9-.3,3-.6,6.4-.8,10.1-.3,3.3,1.1,8.5-6.3,5.4-24.4-10.2-46.3-31.5-69.7-38.8-16.1-5-15,9.9-15.2,23.4-.2,14.1-1.2,28.7-1.5,43.1h0Z"/>
  <path class="st0" d="M625.9,1004.7c3.6,2.5,5.5,3.8,9.5,6.6-2.9-15.9-1.7-31.6-2.1-47.4-.1-7-.7-14.4-.7-21.3,0-5-.4-13.2,7.6-11.8,23.8,4.4,45.9,26.6,66.5,36.1,2.1,1,11.8,5.9,10.8-1.8-.5-4.4-.5-9.2-.8-13.4-.3,3.5-.5,7.4-.8,11.5-.6,7.3-11.1.4-13.1-.6-21.4-11.1-44.9-35.4-69.6-39.7-7.7-1.3-7.4,6.7-7.7,11.8-.4,6.7-.5,13.6-.7,20.4-.2,7.5-.4,15.1-.7,22.5-.5,9.6-1.2,17.5,1.7,27.1h0Z"/>
  <path class="st0" d="M612.6,995.4c2.8,2,4.3,3.1,7.5,5.3-4.4-10.5-5.2-19.5-5.3-30.5-.1-8.1-.5-16.4-.7-24.6-.2-7.5-.3-15.2-.7-22.6-.3-5.8-2.1-15.6,2.4-18.2,5.6-3.3,18.5,4.6,25.1,8.4,13,7.5,25.4,16.6,38.1,24.4,2.7,1.6,18.2,11.4,19.5,6.8,1-3.7-.4-10-.8-15-.3,4.1.6,11.5-.8,13.2-2.7,3.1-17.2-6.6-22.6-10.1-12.5-8.2-24.6-17.2-37.4-25.1-7.1-4.4-22.3-14-27.9-9.7-3.9,3-2.4,12.7-2.4,18.7,0,7.1-.5,14.6-.7,22-.2,8-.4,16.2-.7,24.1-.5,12.3,1.8,22,7.5,33.1h0Z"/>
  <path class="st0" d="M601.9,987.7c2.3,1.6,3.4,2.5,6,4.3-7.2-12.4-12.7-24.8-13.6-39.3-.5-8.2.8-16.5.5-24.6-.5-15.5-2.8-31.5-1.1-47,1.8-17.1,51,19.9,55.8,23.4,6.8,4.8,23.7,19.1,28.5,16.4,2.8-1.6,1.1-10.4.5-15.3.2,4.3,1.3,13.2-3.2,13.2-9.3,0-23.3-14.4-32.9-21.6-4.3-3.2-53.8-40.7-54.3-21.5-.4,14.7-.9,30.2-1.3,45.3-.2,8.5-.5,17.1-.7,25.6-.4,15,8.2,28.8,15.9,41Z"/>
  <path class="st0" d="M593.1,981.3c1.9,1.4,2.8,2.1,4.9,3.6-9.1-13.4-21.1-29.6-21.7-46.3-.3-9.2-.5-18.5-.7-27.8-.4-16.6-1.5-34-1.2-49.9.1-8.1,1.3-13.4,8.5-13.1,11.2.4,25.5,13.7,36.1,21.9,11.1,8.5,23.5,21.4,36.4,25.5,7.1,2.2,4.3-10.6,3.9-14.2.2,3.7,1.9,15.4-5.8,11.9-14.1-6.4-26.6-18.7-38.7-28.2-10.9-8.7-24.4-21.8-37.9-23.9-8-1.2-7.9,8.5-8.1,14-.8,15.8-.7,32.5-1.3,48.5-.3,9.1-1.1,18.5-.7,27.4.9,17.8,16.1,36.2,26.2,50.7h0Z"/>
  <path class="st0" d="M585.3,975.6c1.7,1.2,2.5,1.9,4.3,3.2-12.1-17-27.1-35.9-31.7-55.8-2.3-9.8-1.4-20.1-1.5-30.3-.1-17.4-.6-35.7-1.2-53.2-.2-6.4-2.5-18.9,2.4-22,7.6-4.7,29.5,16,36.8,21.9,12.5,10,25.7,22.7,40,29.6,8.8,4.2,6-9.9,5.8-13.7.2,4.2.9,16.3-7.5,11.5-14-8.1-28.6-21-41.8-31.8-8.4-6.9-30.8-28.2-38.5-23.8-4.5,2.6-2.6,15.6-2.6,22.1,0,16.9-.6,34.8-1.3,51.8-.4,11-1.4,20.9,1.8,31.3,6.5,21,21.8,40.8,35,59.3h0Z"/>
  <path class="st0" d="M577.9,970.2c1.7,1.2,2.5,1.8,4.1,3-14.4-20-29.9-40.8-39.1-63.2-4.8-11.7-5.7-23.1-5.8-35.9-.2-18.7-.4-38.1-1.2-56.5-.3-7.9-3.9-21.9.1-26.3,5.4-6,31,16.6,37.7,22,12.8,10.3,26.1,23.4,41,30.3,9.3,4.4,6.5-10.9,6.2-14.9,0,4.3,1.2,17.8-7.8,12.9-14.5-7.9-28.9-21-42.2-31.8-7.5-6.1-32.5-28.6-38.7-23.1-4.2,3.8-1.7,17.3-1.7,24.9,0,17.9-.7,36.8-1.2,55.1-.4,13.8,2,25.8,7.6,38.2,10.5,23,26.1,44.4,40.9,65.3h0Z"/>
  <path class="st0" d="M570.1,964.3c1.8,1.3,2.7,2,4.4,3.3-15.7-22.2-31.6-44.8-43.8-68.6-7.1-13.7-12.5-28.3-12.8-44.2-.4-20.1-.8-40.3-1.2-60.4-.1-6.6-1.5-19.7,5.1-22.2,10.3-3.8,29.9,15.4,38.7,22.3,10.6,8.3,25.8,24.8,37.7,25.4,6.4.3,4-14,3.7-18.6,0,4.5,1.7,17.8-5,16.8-12.9-1.8-27.3-17.6-38.4-26.3-10-7.8-26.5-24.5-39.2-22.9-7.8,1-7.4,13.2-7.6,19.4-.6,19.4-.9,39.4-1.2,59-.3,18.9,10.8,38.4,19.7,54.4,12,21.7,26.1,42.1,40.1,62.6h0Z"/>
  <path class="st0" d="M561.2,957.6c2.1,1.6,3.1,2.3,5,3.8-14.4-21.5-29.2-42.7-42.3-65-10.6-18.1-23.5-39.3-25.2-60.5-1.7-21-.4-43.1-1.2-63.8-1.1-30.7,41-.7,50.2,5.8,7.6,5.4,26.2,22,33.2,18.6,4.9-2.4,2.3-16.7,1.8-23.2.1,6,2,19.7-3.2,21.5-8.2,2.8-25.9-13.7-34.2-19.6-8.8-6.2-52.8-37.7-52.8-7.7,0,10-.3,20.6-.6,30.7-.4,11.2-1.6,22.5.3,33.4,3.8,21.7,17,43.2,28.5,62.6,12.9,21.6,27.2,42.3,40.6,63.6h0Z"/>
  <path class="st0" d="M550.4,949.5c2.5,1.9,3.7,2.8,6,4.5-25.6-42.8-59.5-84.6-73.7-131.7-3.8-12.5-3.6-25-3.8-38-.1-10.9-.7-22.2-.5-33.1.6-27.5,50.5,8.3,58.5,13.1,4.6,2.7,23.3,15.4,26.6,8.6,3.5-7,.4-19.1,0-28.1.1,8.6,2.3,20.3-1.3,26.4-3.7,6.2-22.3-6.1-27.3-9-8.1-4.8-57.7-41.4-61.2-17.9-1.6,10.6-.8,21.7-1,32.3-.2,13.7,0,26.3,4.2,39.4,15.7,47.4,49.6,88.8,73.5,133.6h0Z"/>
  <path class="st0" d="M536.9,939.2c3.1,2.4,4.6,3.5,7.3,5.6-22.5-46.9-55.5-89.1-75.1-136.6-6.1-14.7-9.2-29.8-9.5-45.8-.2-11-2.4-23.2.5-34,6.2-23,58,18.3,66.7,23.1,8.4,4.6,15.9,7.1,18.8-4.4,2.4-9.5-.8-21.8-1.3-31.5.1,9.2,2.9,21.3,0,30.2-3.7,11.5-12,7.6-20.2,2.9-9-5.2-62.1-48.4-69.2-24.8-3.2,10.7-1.4,22.9-1.5,33.8-.1,15.6,4.7,30.8,10.8,44.9,10.9,25.4,25.3,49.9,39.4,74.1,11.8,20.2,24.9,40.4,33.2,62.4h0Z"/>
  <path class="st0" d="M520.1,926.2c3.8,3,5.6,4.4,9,7-6.1-21.7-18.9-41.6-30-61-14.3-25-29-50-41.2-75.9-7.7-16.3-16.2-34.3-17.4-52.6-.8-11.6-2.8-24.6.7-35.9,7.6-24.5,61.1,19,70.5,24.2,12.1,6.7,14.3.8,14.1-11.9-.2-11.3-.5-22.7-.7-34-.2,10.7-.7,21.5-.7,32,0,4.8,1,11.5-.7,14.6-2.1,3.7-11-1.9-14.4-4-10-6.2-63.6-50.3-72.9-26.6-11.1,28.1,6.3,66.1,18.1,90.7,11.8,24.7,26,48.8,39.5,73,10.1,18.2,24.1,39.1,26.2,60.3h0Z"/>
  <path class="st0" d="M501.1,911.4c3.8,3,5.7,4.5,9.6,7.4-.5-19.5-12.3-39-21.1-55.8-13.3-25.3-27.8-50.1-40.5-75.5-9.6-19.2-18.6-39.2-24.3-60.1-3.6-13.2-6.7-28.6-2.8-41.9,7.6-25.7,59.8,15,70.1,20.2,12.3,6.3,14.7-.4,14.6-13,0-11.9-.5-24.2-.7-36.3-.2,11.4-.3,23.1-.7,34.3-.5,13-4.6,17-16.4,10.8-10.5-5.6-63.4-47.4-71.8-21.7-4.3,13.2-1.7,27.9,1.7,40.7,5.9,22.1,16.9,43.6,27.4,64.2,13.2,26,28.1,51.7,41,77.7,7.5,15.3,14.4,31.5,14,49h0Z"/>
  <path class="st0" d="M482,896.5c3.8,2.9,5.6,4.4,9.4,7.3-.1-16.8-3.8-31.7-10.5-46.9-11.6-26.1-26.5-51.4-39.7-77-11.1-21.6-21.9-43.6-30.2-66.5-5.6-15.5-11.7-34.1-8.9-50.6,4.8-28.5,53.1,4.3,64.8,9.2,8.6,3.6,15.9,4.6,19.8-5.8,4.2-11.5.6-27.8.1-39.7-.1,12.2-.4,24.7-.7,36.6-.4,13-17,6.5-23,3.9-12-5.3-60.9-38.8-65.9-9.8-2.9,17.1,4.1,36.5,10.1,52.3,8.8,23.3,19.9,45.7,31.3,67.8,12.7,24.8,27.5,49.6,37.3,75.2,5.6,14.6,6.6,28.3,6.2,44h0Z"/>
  <path class="st0" d="M462.9,881.5c3.7,2.9,5.5,4.3,9.2,7.2,0-15.1.4-28.9-4-43.1-7.8-25-22.2-49.2-34.3-73-12.5-24.5-25.2-49.1-35.9-74.5-7.4-17.9-16.9-39.1-15.6-57.9,2.1-30.2,36-15.4,55.1-7.9,6.4,2.5,25.5,12.4,29.6,3,4.8-10.9,1.1-26.7.6-38.9.1,11.4,3.5,27.6-2.1,36.8-5.2,8.4-25.3-3.1-32-6.1-19.3-8.6-54.5-23.8-55.8,7.8-.8,20.5,10,43.3,18.3,62.6,10.7,24.6,23.1,48.4,35.1,72.4,11.3,22.5,25.4,46,30.8,70.2,3.1,13.7,1.4,27.2,1,41.4h0Z"/>
  <path class="st0" d="M443.8,866.6c3.6,2.8,5.4,4.2,9,7.1,0-14.1.7-28.4-.8-42.3-2.6-22.9-16.1-45.8-26.2-66.6-22.5-46.2-53.9-95-61.7-144.9-1.6-10.4-3.2-25.3,8.4-31.3,11.1-5.7,26.3,1.4,36.3,5.8,8.4,3.7,29,16.6,36.6,9.8,7.7-6.9,3.3-27.4,2.9-37.9,0,9.7,3.7,30.3-4.4,35.8-8.8,6-29.4-8-38.6-12.3-10.1-4.8-26-12.8-37.4-6.9-12,6.2-9.5,22.3-7.6,32.8,9.2,50.5,40.3,99,62.5,146.2,9,19.1,21.4,41.2,21.5,62.7,0,13.9-.4,27.9-.6,41.9h0Z"/>
  <path class="st0" d="M424.7,851.7c3.5,2.8,5.3,4.1,8.9,6.9-.2-14.7-.4-29.4-.6-44-.3-20.6-8.1-40.2-16.2-58.6-22.1-50.4-51.6-99.5-67.2-152.1-3.9-13.2-9.4-30.7-2.9-44.1,6.6-13.8,27.9-2.6,37,1.5,10.2,4.6,30.7,18.2,40.8,12.7,9.2-5.1,5.1-27.8,4.8-37.5,0,9.1,3.3,31.5-6.2,35.5-11.2,4.8-31.4-9.4-42.3-14.5-8.7-4.1-32.2-17.4-38.4-2.8-6,14.2.1,32.4,4.4,46,16.3,52.4,46,101.2,66.6,151.9,6.9,17,12.2,34.6,13.1,53.3.8,15.3-1.4,30.6-1.7,45.9h0Z"/>
  <path class="st0" d="M405.7,836.9c3.5,2.7,5.2,4,8.7,6.7-.2-15.3-.4-30.7-.6-46-.2-18.4-1.9-35.2-8-52.5-18.6-52.2-48.1-101.8-67.8-154-6.4-16.9-16.1-38.6-13.6-57.2,2.4-17.6,29.7-3.7,38-.2,10.9,4.6,31.2,17.4,42.2,11.7,10-5.1,5.8-29,5.5-38.8,0,9.7,3.4,32.6-6.7,37-11.5,5.1-31.9-8-43.3-13-8.3-3.6-36.5-18.3-39-.6-2.7,19,8,41.3,14.6,58.5,19.7,51.3,49.8,100.5,65.9,152.4,5.1,16.6,5,32.6,4.7,50-.3,15.2-.4,30.6-.6,45.8h0Z"/>
  <path class="st0" d="M386.6,822.2c3.4,2.6,5.1,3.9,8.5,6.5-.2-16-.5-32.1-.6-47.9,0-16.5,1.1-32.9-2.5-49-11.7-51.9-42.8-101.4-63.5-150.9-8-19.1-20.4-43-19.2-64,1.1-18.5,26.6-8.1,36.1-4.8,10.5,3.7,31.3,14.5,40.8,7.3,9.6-7.3,5-30.9,4.7-42.2,0,10.9,3.9,33.9-5.9,40.6-10,6.9-30.8-4.2-41.5-7.9-9.7-3.4-34.8-13.5-36.2,5-1.5,21,11.2,45.1,19.1,64.1,11.4,27,24.1,53.5,36.1,80.3,9.6,21.6,20.6,44.5,24.2,67.7,2.4,15.7.7,31.7.4,47.6-.3,15.8-.4,31.8-.6,47.8h0Z"/>
  <path class="st0" d="M367.5,807.8c3.3,2.5,5,3.8,8.3,6.3-.3-32.9,0-66-1.1-98.8-.8-22.8-11.4-45.8-20.2-66.5-10.9-25.7-23-51-34.2-76.5-8.5-19.4-22.7-44.9-19.6-64.9,2.4-16.1,17.3-14.8,31.6-11.7,9.6,2.1,29.8,9.6,36.6-.5,8-11.7,3.2-33.3,2.8-47.2,0,13.5,4.3,34.6-3.9,45.7-7.2,9.8-27.1,2.4-36.9.4-14.3-3-28.8-3.8-31.3,12.2-3.1,19.9,10.7,45.1,19,64.3,11.3,25.9,23.4,51.6,33.8,77.9,7.6,19.1,16.3,40.2,16.1,61.1-.3,32.7-.8,65.5-1.1,98.3h0Z"/>
  <path class="st0" d="M348.4,793.6c3.3,2.4,4.9,3.6,8.1,6-.4-34.2-.8-68.4-1.1-102.5-.2-17.8-3.1-34.8-8.8-51.5-9.4-27.4-22.3-54.4-33.8-81.3-8.1-19-19.8-42.8-17.3-62.6,1.8-14.4,12.3-18.6,26.8-18.3,12.4.3,25.4.3,29.6-11.7,5.2-14.8,1-35.4.5-52.5,0,16.7,3.7,36.7-1.6,51.1-4.3,11.8-17.2,12-29.6,11.9-14.5-.1-24.7,4.5-26.5,18.7-2.5,19.6,8.6,43,16.5,61.8,11,26.2,23.9,52.6,32.1,79.6,4.9,16.1,6.3,32.2,6.1,49.2-.5,33.9-.7,68-1.1,102h0Z"/>
  <path class="st0" d="M329.3,779.7c3.2,2.3,4.8,3.5,8,5.8-.3-35.4-.8-70.8-1-106.1-.1-16,.5-31.6-2.9-47-5.7-25.6-18.1-50.5-27.5-75.2-7.1-18.5-16.4-40.7-14.3-59.8,1.4-12.9,8.9-21.3,22.3-24.3,13.8-3.1,19.6-11.7,20.2-25.6.8-17.9-.4-37.5-.6-56.2-.2,18.2.4,37.2-.6,54.6-.8,13.9-6.5,22.4-20.1,25.9-13.2,3.4-20.5,11.9-22,24.8-2.1,18.9,6.8,40.6,13.5,59,8.7,23.8,20.9,48.1,25.1,72.9,2.5,15,1.3,30.3,1.1,45.6-.6,34.9-.7,70.4-1.1,105.7h0Z"/>
  <path class="st0" d="M310.3,766.1c3.1,2.2,4.7,3.3,7.8,5.5-.3-36.5-.8-73.2-1-109.6,0-15.3.4-30.9-.5-46.1-1.4-22.7-11.7-45.4-18.6-66.9-5.8-18.1-13-38.6-11.4-57,1.1-13,6.6-22.6,17.3-30.9,11.2-8.7,11.8-26.7,12.1-39.8.5-19.1-1.3-38.3-1.6-57.4,0,18.7,1.4,37.4.6,56.1-.5,13.2-1.5,30.7-12.3,39.7-10.4,8.6-15.9,18.4-17,31.3-1.6,18.2,5.1,38.3,10.6,56.2,6.2,20.5,15.4,42.4,15.7,64.1.2,15.1-.3,30.5-.4,45.6-.4,36.4-.7,72.8-1.1,109.2h0Z"/>
  <path class="st0" d="M291.2,752.9c3,2.1,4.6,3.1,7.6,5.2-.3-37.7-.7-75.4-1-113.1-.1-15.8-.3-31.7-.4-47.5-.2-19.9-4.8-39.5-9.5-58.8-4.4-17.7-9.6-36.7-8.6-54.5.8-13.7,6.3-25.3,12.2-37.7,6.9-14.4,4.3-33.5,4.1-49.2-.2-20-.4-40.2-.5-60.2-.2,19.6-.4,39.3-.6,58.8-.1,15.7,2.1,34.3-4.5,48.8-5.7,12.5-11.3,24.2-12.1,38-1.1,17.6,3.7,36.2,7.6,53.6,4.2,18.7,7.2,37.6,7.2,56.7,0,15.6-.3,31.4-.4,47.1-.3,37.6-.7,75.1-1,112.7h0Z"/>
  <path class="st0" d="M272.1,740.2c3,2,4.5,2.9,7.4,4.9-.3-38.8-.7-77.7-1-116.4-.2-34.4,1.5-68.9-3.8-102.9-2.7-17.3-6.1-35.2-5.7-52.2.4-14.7,5-29.8,7.2-44.5,2.6-18,.5-37.2.2-55.5-.3-20.6-.3-41.4-.5-62.2-.2,20.3-.5,40.6-.6,60.8,0,18.2,1.3,37.1-1,54.7-1.9,14.6-6.7,29.9-7.2,44.7-.6,16.7,2.5,34.3,4.6,51.3,4.3,33.5,1.7,67.4,1.3,101.2-.4,38.6-.7,77.4-1,116h0Z"/>
  <path class="st0" d="M253,727.9c2.9,1.8,4.4,2.8,7.3,4.6-.3-39.9-.7-79.8-.9-119.6-.2-34.3.8-68.9-1-102.9-.9-16.7-2.9-33.7-2.8-50.3.1-16.9,2.2-34.3,2.2-51.2,0-40.3-.7-81.3-1-121.9-.4,39.9-.4,80.1-1,119.8-.3,17-2.3,34.3-2.5,51.1-.3,16.2,1.3,33,1.6,49.3,1.6,73.4-1.1,147.5-1.8,221.2Z"/>
  <path class="st0" d="M233.9,716.1c2.8,1.7,4.3,2.6,7.1,4.3-1.1-152.6-2.3-305.2-3.5-457.8-1.3,151.2-2.4,302.3-3.6,453.5h0Z"/>
  <path class="st0" d="M214.9,705c2.8,1.6,4.1,2.4,6.9,4-1.1-156.3-2.2-312.6-3.4-469-1.2,155-2.4,310-3.5,465Z"/>
  <path class="st0" d="M195.8,694.4c2.7,1.4,4,2.2,6.7,3.7-1.1-159.8-2.2-319.7-3.3-479.5-1.2,158.6-2.3,317.2-3.4,475.9Z"/>
  <path class="st0" d="M176.7,684.6c2.6,1.3,3.9,2,6.6,3.3-1.1-163.1-2.1-326.3-3.2-489.4-1.1,162-2.2,324-3.4,486.1Z"/>
  <path class="st0" d="M157.6,675.4c2.6,1.2,3.8,1.8,6.4,3-1.1-166.2-2.1-332.4-3.1-498.6-1.1,165.2-2.2,330.4-3.3,495.6h0Z"/>
  <path class="st0" d="M138.5,667c2.5,1,3.7,1.6,6.2,2.6-1-169-2-338-3-507-1.1,168.1-2.1,336.2-3.2,504.3h0Z"/>
  <path class="st0" d="M119.5,659.4c2.4.9,3.6,1.4,6,2.3-1-171.5-2-343-3-514.6-1.1,170.7-2,341.5-3.1,512.2h0Z"/>
  <path class="st0" d="M100.4,652.7c2.3.8,3.5,1.2,5.9,2-1-173.8-1.9-347.5-2.9-521.3-1,173.1-2,346.2-3,519.3Z"/>
  <path class="st0" d="M81.3,646.9c2.3.6,3.4,1,5.7,1.6-.9-175.7-1.8-351.4-2.8-527.1-1,175.2-1.9,350.3-2.9,525.5h0Z"/>
  <path class="st0" d="M62.2,642c2.2.5,3.3.8,5.5,1.3-.9-177.3-1.8-354.7-2.7-532-.9,176.9-1.9,353.8-2.8,530.7h0Z"/>
  <path class="st0" d="M43.1,638.1c2.1.4,3.2.6,5.3,1-.9-178.6-1.7-357.2-2.6-535.9-.9,178.3-1.8,356.6-2.7,534.9h0Z"/>
  <path class="st0" d="M24,635.3c2.1.2,3.1.4,5.2.7-.9-179.6-1.7-359.1-2.5-538.7-.9,179.3-1.7,358.7-2.6,538Z"/>
  <path class="st0" d="M5,633.6c2,.1,3,.2,5,.3-.8-180.1-1.6-360.3-2.4-540.4-.9,180-1.7,360.1-2.5,540.1Z"/>
</svg>