<?xml version="1.0" encoding="UTF-8"?>
<svg id="Layer_1" xmlns="http://www.w3.org/2000/svg" version="1.1" viewBox="0 0 932.7 1082">
  <!-- Generator: Adobe Illustrator 29.4.0, SVG Export Plug-In . SVG Version: 2.1.0 Build 152)  -->
  <defs>
    <style>
      .st0 {
        fill: #fff;
      }
    </style>
  </defs>
  <path class="st0" d="M162.9,1077.6c-5.4,2.8-10.8,5.6-16.3,8.3-5.3,5.7-11.5,11.6-10.8,20,.3,3.9.6,8,.7,11.8.2,6.6-2.1,15.8,1.5,20.6,3.4,4.4,12.9,4.8,19.2,5.5,13.2,1.6,26.8,2.4,39.8,4.4,9.2,1.4,23.5,2.8,29.1,10.3,3.1,4.2,2.3,10.2,1.9,15.5.9-5.3,2.4-11.3-.5-15.6-5.2-7.6-20-9-29-10.4-11.8-1.8-24-2.7-36-4.2-6-.8-17.5-1.6-19.2-6.7-1.9-5.5.8-14.9,1.3-22.1.3-4.1.5-8.5.7-12.9.1-2.3-.5-4.5,1.5-7.6,4.1-6.3,10.5-11.5,16.1-16.8h0Z"/>
  <path class="st0" d="M192.2,1061.5c-5.7,3.2-11.3,6.4-17,9.5-6.5,6.5-20.3,16.8-20.1,26.8,0,4.2.4,8.7.7,13,.4,7.6.2,15.9,1.2,22.7,1.8,12,41.3,11.7,51,12.9,11.5,1.5,28.6,2.8,35.4,10.5,4.3,4.8,4.2,9.6,3.9,17.1.9-7.4,1.5-12.3-2.5-17.2-6.3-7.8-23.6-9.2-34.9-10.7-12.7-1.6-27.2-1.4-38.6-5-4.2-1.3-9.4-3.2-8.8-9,.7-7.8.9-16.2,1.3-24.3.2-4.7.2-9.6.7-14.1,1.3-11.7,19.7-24.3,27.8-32.2h0Z"/>
  <path class="st0" d="M222.6,1043.2c-5.7,3.6-11.5,7.1-17.3,10.6-9.6,9.9-27.2,22.2-30.8,35.3-1.2,4.5,0,9.7.4,14.3.7,8,.8,16.6,1.2,25,.2,4-1.1,8.4,4.9,10.6,12.3,4.7,27.9,3.5,40.9,5.1,12.8,1.5,30.2,2.9,39,11.1,5.3,5,5.8,10.8,5.5,18.8.9-7.9,1-13.9-4-19-8.2-8.3-25.6-9.8-38-11.4-12.6-1.6-28.7-.1-40.3-5.3-5.3-2.4-2.8-7.4-2.6-11.5.4-8.9,1.4-18.3,1.3-26.6,0-5.9-.4-10.8,2-16,7.1-14.8,25.4-28,37.8-41Z"/>
  <path class="st0" d="M253.4,1023.4c-5.7,3.8-11.4,7.5-17.1,11.2-13,14.3-30.4,28.3-39.2,43.7-3.3,5.7-3.6,10.6-2.8,17.2,1,8.4.8,18.2,1.2,27.4.2,4.2-2.7,9.9,2.5,12.3,11.9,5.6,28.9,4,42,5.7,13.2,1.8,31,3.7,39.9,12.4,5.6,5.5,6.1,12,5.8,20.7.9-8.6,1-15.2-4.3-20.9-8.2-8.8-25.8-10.9-38.5-12.8-12.4-1.8-29.6-.2-40.5-6.2-4.8-2.7-1.8-8.5-1.6-12.9.4-9.7,1.2-19.7,1.2-29.1,0-7.9,2.2-13.6,6.8-19.8,12.6-16.9,30.1-32.4,44.7-48.9h0Z"/>
  <path class="st0" d="M283.7,1002.6c-5.5,3.8-11,7.7-16.5,11.4-14.3,17.4-31,33.7-44.5,50.9-5.1,6.5-9.8,13.3-9.3,22.1.5,9.8,1.3,20.5,1.2,29.9,0,6,2.3,9.9,6.8,12.6,10.1,6,27.5,5.1,40.3,7.3,12.7,2.2,30.4,4.9,38.1,14.3,5.3,6.4,5,13.7,4.9,22.8.7-9.1,1.5-16.6-3.5-23.2-7.2-9.5-24.7-12.4-37-14.8-12.2-2.3-28.5-2.2-38-8.2-4.5-2.8-7-6.9-6.4-13.1.9-10.1.5-21.8,1.2-32.2.8-11,12.3-21.7,19.4-29.8,14.6-16.6,29.5-32.9,43.4-50.2h0Z"/>
  <path class="st0" d="M313,981.7c-5.2,3.8-10.3,7.5-15.5,11.2-13.4,18.2-28.3,35-43,52.1-7.5,8.7-20.8,20.6-21.8,32.2-.9,10.6.6,22,1.2,33.1.9,16.1,41.9,18.9,52.5,21.5,11.7,2.9,28.6,6.8,34.5,16.9,4.2,7.4,3.4,15.9,3.2,25.3.7-8.4,1.9-16.5-.7-23.7-3.9-10.5-19.7-15.4-30.3-18.5-12.6-3.7-26.4-5.9-39.1-10.4-5.7-2-14.7-5-14.9-12.2-.2-5.6.5-11.5.6-17,0-6.2-.4-12.6.9-18.4,3.2-14,19.2-27.5,29-38.7,15.2-17.3,30.2-34.7,43.5-53.5h0Z"/>
  <path class="st0" d="M340.3,961.4c-4.7,3.5-9.4,7.1-14.2,10.6-12,19.1-26.1,36.6-40.6,53.8-10.9,13-25.6,26.7-31.7,41.5-2.7,6.4-1.6,12.6-1.4,19.6.2,5.6-.8,12.1.9,17.5,2.4,7.5,14.8,9.7,21.7,11.5,14.1,3.6,28.9,5.9,42.1,11.1,9.5,3.7,23.4,10,25.1,21.3,1.3,8.2.8,17.1.8,25.7.4-8.8,1.3-17.7.5-26.1-1-11.2-14.2-18-23.3-22-12.7-5.6-27.2-8.1-41-11.8-6.9-1.9-19.1-4.4-21-12.1-1.3-5.3,0-11.6.2-16.9.2-7.8.2-14.5,3.9-21.5,8.1-15.3,22.7-29.2,34.4-43.1,15.8-18.7,31-37.8,43.4-59h0Z"/>
  <path class="st0" d="M365.1,942.7c-4.2,3.2-8.3,6.3-12.5,9.5-18.5,39-53.1,68.8-74.6,103.5-4.6,7.5-6.6,14.9-6.3,23.8.2,5.6-1,12.2,1.6,17.3,4.1,8.1,18.6,9.9,27.2,11.7,15.2,3.2,32,5,45,12.4,20.1,11.4,16.6,31.9,16.9,53.1.2-9.5.4-19,.7-28.4.3-11.9-5.2-20.8-14.7-25.9-11.7-6.3-26.6-8.7-40.5-11.8-9.1-2-25.2-4.2-29-12.2-2.4-5.2-1.4-11.6-1.1-18,.4-9.9,4-18.2,9.6-26.2,24.7-35.3,60.9-67,77.7-108.7h0Z"/>
  <path class="st0" d="M386.4,926.3c-4,3.1-6.1,4.7-10.4,8.1-10.8,41.5-47,75-71.4,108.1-6.2,8.5-13.6,18.4-13.6,29.5,0,7-.5,13.2,2.7,18.4,5,8.3,21.8,10.4,32,12.5,14.7,3.2,31.1,5.5,43.4,12.4,10.8,6.2,11.8,15.8,11.8,28.3,0,9.9.4,20.2.6,30.3.2-10.2.3-20.5.7-30.5.5-12.4.3-22.6-10.3-28.8-12.6-7.3-29.8-9.9-45.2-13.6-9.2-2.2-22.4-4.2-28.1-12.5-11.5-16.5,6.8-39.3,16.5-51.7,13.6-17.5,28.7-34.5,41.9-52.7,12.2-16.8,26.6-36.7,29.4-57.9h0Z"/>
  <path class="st0" d="M405.5,911.4c-3.8,3-5.7,4.5-9.6,7.4.2,19.6-12.6,39.2-22.8,55-12,18.4-26.1,35.6-39.4,53-9.9,12.8-33.3,39.1-20.9,56.6,6.6,9.3,21.5,11.5,31.8,14.1,14.6,3.6,31,6.5,43.1,13.9,11,6.8,12.1,17,12.3,30.2.2,10.8.4,21.6.6,32.4.2-10.8.4-21.7.7-32.6.3-13.2-.8-23.7-11.6-30.5-12.4-7.8-29.4-10.9-44.7-15.2-9.2-2.6-22.3-5.2-27.6-14.1-11.3-19,16.7-47.6,27.1-60.8,14.8-18.6,30-37.5,42.5-57.4,9.7-15.6,18.2-33,18.5-52.1h0Z"/>
  <path class="st0" d="M424.6,896.5c-3.8,2.9-5.6,4.4-9.4,7.3.4,17.7-3.6,33.5-11.8,48.7-10.8,20.1-25.2,39-39.2,57.5-10.1,13.3-21.3,26.6-29.1,41.6-3.9,7.5-7.8,16.9-3.8,25,4.5,9.3,17.4,12.5,26.5,15.4,14.6,4.6,30.9,8,42.9,16.7,21.3,15.3,19.1,40.5,19.1,65.3.2-11.5.4-23.1.7-34.6.2-13.5-8.6-23.7-18.6-31-12-8.7-27.4-12.2-41.6-17.2-8.8-3.1-21.2-6.6-24.7-16.2-3.4-9.2,2.4-19.5,7.1-27.3,9.3-15.5,21.3-29.5,32.3-43.7,14.5-18.8,29.4-38.2,39.7-59,7.7-15.4,9.7-30.9,9.8-48.5h0Z"/>
  <path class="st0" d="M443.7,881.5c-3.7,2.9-5.5,4.3-9.2,7.2.4,16.3,1.2,30.9-4.5,46-7.8,20.6-21.7,39.8-34.8,57.8-10.7,14.7-22.3,29-32.6,44-6.2,9-15.4,21.5-13.1,33.1,1.9,9.5,12,14.7,20,18.6,13.3,6.5,27.8,11.3,40.3,18.5,12.6,7.3,24.9,16.9,28.1,30.8,2.6,11.1,1.2,24.3,1.1,36.5.5-12.3,2.4-25.5,0-36.7-3-14-15.4-23.6-28.1-30.9-12.3-7-26.5-11.9-39.3-18.8-7.8-4.2-17.1-9.9-17.8-19.6-.9-11.8,8.5-23.8,15-32.9,11.9-16.6,25.1-32.3,37-48.6,13.1-18,27.3-37.5,34.1-58.5,4.9-15.2,3.6-30.3,3.7-46.5h0Z"/>
  <path class="st0" d="M462.7,866.6c-3.6,2.8-5.4,4.2-9,7.1.5,15.3,2.3,30.5-.2,45.2-3.4,20.1-16.3,39.2-27.6,56.2-11.5,17.3-24.7,33.7-36.9,50.6-7.9,10.9-17.5,23.1-20.2,36.6-4.7,23.6,36.3,34.8,51.4,42.2,13.8,6.8,30,16.2,35.1,31.1,4.2,12,2.9,25.3,2.8,38.4.5-13.2,2.2-26.4-1.7-38.6-4.8-14.9-21-24.5-34.7-31.3-15.4-7.7-55.8-19.4-47.9-43.9,4.8-15.1,15.9-28.5,25.4-41,12.6-16.5,25.6-32.9,36.9-50.1,10.9-16.5,23.9-35.9,25.8-55.9,1.4-15.3.7-31.1.8-46.6h0Z"/>
  <path class="st0" d="M481.8,851.7c-3.6,2.8-5.3,4.1-8.9,6.9.2,15.6.5,31.2.6,46.8.2,18.8-8.8,36.9-17.9,52.6-18.8,32.4-49.8,61.8-64,95.3-4.5,10.7-4.7,19.8,2.5,28.8,8.3,10.4,27.2,13.9,39.5,19.5,15.1,6.8,32.5,16.6,39.3,32.1,5.5,12.5,4.3,26.4,4.3,40.4.5-14,2-27.9-3.2-40.5-6.4-15.5-23.6-25.4-38.5-32.3-12.2-5.7-31.6-9.3-39.2-19.7-6.9-9.4-4.2-19.8,1.1-30.4,17.2-34.5,48.8-64.3,67.8-98.5,8.8-15.7,14.6-32.9,16.4-51.3,1.6-16.5,0-33,.2-49.5h0Z"/>
  <path class="st0" d="M500.9,836.9c-3.5,2.7-5.2,4-8.7,6.7.2,16.3.5,32.7.6,49,.2,17.6-1.9,33.7-9.1,49.4-16.4,36-45.2,66.8-66,101-5.1,8.5-16.4,24.9-7.9,34.3,9.8,10.8,28.2,14.5,41,20.5,15.7,7.4,33.5,17.7,40.7,33.8,5.9,13.1,4.9,27.7,4.8,42.4.4-14.7,1.9-29.3-3.7-42.5-6.7-16.1-24.1-26.6-39.5-34.1-12.5-6.1-30.9-10.1-40-21-8.3-10,5.2-27.3,10.7-35.7,22.6-34.5,52.4-66.1,68.4-103.5,6.8-15.8,7.7-32,7.8-49.4.2-16.9.4-33.8.6-50.8h0Z"/>
  <path class="st0" d="M520,822.2c-3.4,2.6-5.1,3.9-8.5,6.5.2,17,.3,34.2.6,51.1.3,16.2,1.7,32.1-2.7,47.7-11,38.4-40.6,71.1-63.1,104.2-6.5,9.5-21.1,26.8-13.7,38.7,7.6,12.2,27.4,16.3,39.6,22.8,16.2,8.7,32.4,19.8,39.3,36.2,5.6,13.4,4.2,29.2,4.2,44.6.5-15.3,2.3-31.2-2.9-44.7-6.3-16.3-22-27.9-37.7-36.7-11.6-6.4-31.1-11.4-37.8-23.6-6.9-12.6,8.6-30.1,15.5-39.9,23.5-32.9,54.6-66.5,64.2-105.9,3.8-15.7,2.4-32,2.5-48.3,0-17.5.4-35.2.6-52.8h0Z"/>
  <path class="st0" d="M539.1,807.8c-3.3,2.5-5,3.8-8.3,6.3.5,33.7,3.4,67.6.9,101-2.9,38.8-34.2,74.2-55.5,104.8-7.5,10.8-20.7,27.6-14,41.5,6.1,12.9,23.7,19.2,35,26.5,15.3,9.8,29.7,22.3,35,39.3,4.5,14.3,2.7,31,2.6,46.8.4-15.8,2.6-32.4-1.4-46.9-4.7-16.9-18.4-29.7-33.2-39.8-10.8-7.4-27.7-14.4-32.8-27.4-5.8-14.6,7.4-31.4,15.3-42.5,21.5-30.1,53.8-66.5,55.1-105.6,1.1-34.5.8-69.3,1.2-103.9h0Z"/>
  <path class="st0" d="M558.2,793.6c-3.3,2.4-4.9,3.6-8.1,6,.4,35,.7,69.9,1.1,104.9.2,18.3-4.4,35.6-12.3,51.7-8.7,17.8-20.9,34.7-31.5,51.6-7.7,12.2-17.5,28.7-12,43.7,4.9,13.3,19.6,21.8,29.8,30.6,13.6,11.6,25.2,25.5,27.9,43,2.4,15.5,1,32.6,1,48.9.3-16.4,2.1-33.4.2-49.1-2.1-17.4-12.9-31.6-25.8-43.6-10.3-9.6-23-18.4-27.6-31.5-5.1-14.6,5.4-32.1,13.2-44.7,10.7-17.1,23.3-34.2,31.9-52.2,7.7-16.2,11-33.4,11.1-51.6.3-35.9.8-71.8,1.1-107.7h0Z"/>
  <path class="st0" d="M577.2,779.7c-3.2,2.3-4.8,3.5-8,5.8.4,36.2.6,72.6,1.1,108.7.2,17.2.6,34-4.9,49.9-6.1,17.7-17.5,34.5-26.2,51.4-7,13.6-14.7,30.8-9.9,45.8,4.4,13.6,15.8,23.8,25.1,34.7,11.5,13.4,17.7,29.3,18.2,47.1.5,16.7.4,34,.5,51,.7-33.8,6-71.2-15.6-98.7-8.7-11.1-19.3-21.9-22.9-35.6-4.1-15.5,3.9-32.8,11.1-46.7,8.7-16.9,20.4-33.7,25.9-51.7,5-16.2,4.4-33.1,4.4-50.2.2-36.9.8-74.3,1.1-111.4h0Z"/>
  <path class="st0" d="M596.3,766.1c-3.1,2.2-4.7,3.3-7.8,5.5.4,37.5.5,75.2,1.1,112.5.3,16.5,1.9,33.4-.5,49.6-2.6,17.4-12.3,34-18.8,50.2-5.9,14.8-11.5,32.1-7.8,47.8,3.3,14,12.4,26.4,19.4,38.8,8.7,15.4,9.6,32.8,9.8,50.7.2,17.6.3,35.3.5,52.9.2-17.7.4-35.3.5-53,.2-17.9-.1-35.4-8-51.1-6.4-12.7-15.1-25.8-17.3-39.6-2.7-16.1,2.6-33,8.8-48.6,6.4-16.2,15.9-32.8,18-50.3,2-16.5.8-33.5.9-50.2.2-38.1.7-76.7,1.1-115h0Z"/>
  <path class="st0" d="M615.4,752.9c-3,2.1-4.6,3.1-7.6,5.2.3,38.7.7,77.4,1,116.1.2,16.9.8,34.2.4,50.8-.4,16.4-5.6,32.5-10,48.4-4.6,16.3-8.1,33.3-5.7,49.6,2.2,14.2,9.5,28.7,13.7,42.5,5.2,16.9,3.7,35.6,3.7,53.7,0,18.2.3,36.5.5,54.8.2-18.3.2-36.7.5-54.9.3-18.1,2.2-36.8-2.3-54.1-3.6-14.1-10.2-28.9-11.8-43.3-1.9-16.6,2-33.7,6.6-50.3,4.4-16,8.9-32,9.3-48.4.4-16.9.3-34.4.5-51.6.4-39.5.7-79,1.1-118.6h0Z"/>
  <path class="st0" d="M634.5,740.2c-3,2-4.5,2.9-7.5,4.9.3,39.9.6,79.9,1,119.6.3,33.3,2.3,66.8-3,99.8-2.7,17-5.2,34.3-3.6,51,1.5,15,6.5,30.7,8,45.9,3.6,36.7,1,75,1.2,112.6.5-37.7,3.1-76.1.9-113-.9-15.3-5.2-31.3-6.3-46.5-1.2-16.9,1.6-34.5,4.3-51.6,5.3-33.3,3.6-67.2,3.8-100.8.3-40.6.7-81.3,1.1-122h0Z"/>
  <path class="st0" d="M653.6,727.9c-2.9,1.8-4.4,2.8-7.3,4.6.3,41,.6,82.1,1,123.1.3,33.8,2.1,67.8.3,101.5-.9,17.3-2.3,35-1.5,52.2.8,16.1,2.6,32.5,2.8,48.7.5,38.5.6,77.4.9,116.1.3-38.8.8-77.8,1-116.4,0-16.3-1.1-32.9-1.5-49.2-.4-17.4,1.2-35.1,2.1-52.6,3.8-75.6,1.6-151.9,2.1-227.9h0Z"/>
  <path class="st0" d="M672.6,716.1c-2.8,1.7-4.3,2.6-7.1,4.3,1.1,151.2,2.3,302.4,3.5,453.6,1.2-152.6,2.4-305.2,3.6-457.9Z"/>
  <path class="st0" d="M691.7,705c-2.8,1.6-4.2,2.4-6.9,4,1.1,155,2.2,310,3.4,465,1.2-156.3,2.4-312.7,3.5-469Z"/>
  <path class="st0" d="M710.8,694.4c-2.7,1.4-4,2.2-6.7,3.7,1.1,158.6,2.1,317.3,3.3,475.9,1.2-159.8,2.3-319.7,3.4-479.6Z"/>
  <path class="st0" d="M729.9,684.6c-2.6,1.3-3.9,2-6.6,3.3,1.1,162,2.2,324.1,3.2,486.1,1.1-163.2,2.2-326.3,3.3-489.4Z"/>
  <path class="st0" d="M749,675.4c-2.6,1.2-3.8,1.8-6.4,3,1.1,165.2,2.1,330.4,3.1,495.6,1.2-166.2,2.2-332.4,3.3-498.6h0Z"/>
  <path class="st0" d="M768,667c-2.5,1-3.7,1.6-6.2,2.6,1,168.1,2,336.2,3,504.4,1.1-169,2.1-338,3.2-507Z"/>
  <path class="st0" d="M787.1,659.4c-2.4.9-3.6,1.4-6,2.3,1,170.8,2,341.5,3,512.3,1-171.5,2.1-343,3.1-514.6h0Z"/>
  <path class="st0" d="M806.2,652.7c-2.3.8-3.5,1.2-5.9,2,.9,173.1,1.9,346.2,2.9,519.3,1-173.8,2-347.5,3-521.3Z"/>
  <path class="st0" d="M825.3,646.9c-2.3.6-3.4,1-5.7,1.6.9,175.2,1.8,350.3,2.8,525.5,1-175.7,2-351.4,2.9-527.1Z"/>
  <path class="st0" d="M844.4,642c-2.2.5-3.3.8-5.5,1.3.9,176.9,1.8,353.8,2.7,530.7,1-177.3,1.9-354.7,2.8-532h0Z"/>
  <path class="st0" d="M863.5,638.1c-2.1.4-3.2.6-5.3,1,.8,178.3,1.7,356.6,2.6,534.9.8-178.6,1.8-357.2,2.7-535.9Z"/>
  <path class="st0" d="M882.5,635.3c-2.1.2-3.1.4-5.2.7l2.5,538c.9-179.6,1.8-359.1,2.6-538.7h0Z"/>
  <path class="st0" d="M901.6,633.6c-2,.1-3,.2-5,.3.8,180,1.7,360.1,2.4,540.1.9-180.1,1.7-360.3,2.5-540.4h0Z"/>
  <path class="st0" d="M920.7,633c-1.9,0-2.9,0-4.8,0,.8,180.3,1.6,360.6,2.4,541,.8-180.3,1.7-360.7,2.4-541h0Z"/>
  <path class="st0" d="M-44.7,1135.5c-5.2,0-7.7-.2-12.9-.4.3-4.9-.3-11.5,1.6-14.7,2.3-3.7,12-4.4,17.5-5.4,13.5-2.6,27.1-5.3,40-9.5,9.8-3.2,20-7.1,28.9-12.7,5.5-3.5,4-4.8,4.3-6.4.6-3.5,1.1-6.2,1.7-7.5.6.8,1.2,3,1.8,6.2.3,1.4,2.3,2.5-2.1,5.8-6.8,5.1-15.1,8.7-22.9,11.8-12.5,5-25.9,8.6-39.2,11.8-6.6,1.6-15.2,2.2-19.9,6.2-2.1,1.8,0,4.8.3,7.2.3,2.5.6,5.1.9,7.6h0Z"/>
  <path class="st0" d="M-25.6,1135.2c-5.1.2-7.6.3-12.7.3.3-2.5.5-5.1.8-7.6.3-2.4-2-5,2.6-7.2,7.8-3.8,17.1-5.3,25.5-7.7,14.1-4,28.1-8.9,41-15.2,7.1-3.5,16.5-7.5,21.2-13.7,1.9-2.5.8-4.2,1-5.9.6-4.1,1.1-7.2,1.7-9.1.6,1.3,1.2,3.9,1.8,7.6.3,1.6,1.6,3.3.7,5.4-2.3,5.1-10.4,8.9-15.5,11.9-20.3,11.7-43.8,17.1-65.5,26.3-6.2,2.6-3.8,5-3.5,7.5.3,2.5.6,5,.9,7.6h0Z"/>
  <path class="st0" d="M-6.5,1133.7c-5,.5-7.5.8-12.5,1.1.3-2.6.5-5.1.8-7.7.3-2.6-.5-4.8,7.9-8,24.3-9.4,50-17.5,70.5-32,6-4.3,13.4-11.2,12.9-18.9-.2-3.8,1.1-8.4,1.7-11,.6,1.9.6,6.2,1.8,9.2,2.3,6-1.7,11.8-6.5,15.9-18.4,15.8-44.5,24.8-66.9,34.7-4,1.8-10.6,3.9-10.4,8.9.1,2.4.6,5.1.9,7.7h0Z"/>
  <path class="st0" d="M12.6,1131.1c-5,.8-7.4,1.2-12.4,1.8-1.8-11.3,8-14.4,16.7-18.3,23.7-10.7,49.9-21.9,69.4-40.1,6.1-5.7,5-7.8,5.2-10.3.2-2.6.5-5.1.7-7.4.5-5.3,1.1-9.8,1.6-13.1.6,2.5,1.2,6.3,1.7,11,.3,2.1.5,4.4.8,6.8.2,2.1,2.1,3.6-1.6,8.1-15.8,18.9-41.6,30.7-63.4,41.4-5.4,2.6-18.7,7.1-19.6,12.3-.4,2,.6,5.3.8,7.9h0Z"/>
  <path class="st0" d="M31.7,1127.5c-4.9,1.1-7.3,1.6-12.2,2.4.3-2.8-.8-5.8.9-8.3,4.7-6.9,17.9-10.7,25.9-14.9,20.8-10.8,51-24.7,63.2-45.4,2.5-4.2,1-6.4,1.3-9.1.2-2.9.5-5.7.7-8.4.5-5.1,1-10.3,1.6-15.4.6,3.2,1,8,1.7,13.2.7,5.1,2.3,10.8,1.4,15.2-1.6,8.3-14.4,16.8-22,22.7-10.5,8.1-21.7,15.2-33,21.9-9.4,5.5-21.1,10.1-28.9,17.4-3.7,3.4-.9,5.9-.6,8.7h0Z"/>
  <path class="st0" d="M50.7,1122.8c-4.8,1.3-7.2,1.9-12,3,.2-2.9-2-5.3,3.9-9.7,10.6-7.8,23-13.7,34.1-20.8,11.4-7.2,22.6-15.1,33-23.9,6.9-5.9,18.1-14.3,19.5-22.9,1.8-11.2,1.7-24.8,3-37.1,1.4,10.8,2.6,22,3.1,32.6.3,6.5-5,11.7-9,16-9.7,10.6-22.3,20-34.4,28.5-11.5,8.1-24,15.3-35.5,23.5-7.6,5.4-5.9,7.8-5.6,10.8Z"/>
  <path class="st0" d="M69.8,1117.2c-4.7,1.5-7.1,2.2-11.8,3.6.3-6.2,5.7-9.5,10.2-12.7,12.7-9.1,26.9-17.6,39.6-27.2,12-9.1,25.1-19.1,34-30.5,3.6-4.7,6.6-9.3,6.7-15.4.2-13.4,1.7-28.1,2.9-42.1,1.4,12.4,2.2,24.8,3,37.2.2,3.5,2.2,6.2-2.7,13.2-7.8,11.3-18.7,20.7-29.2,29.5-12.5,10.5-26.3,20-39.4,29.5-4.4,3.2-13.3,8.1-13.4,14.8h0Z"/>
  <path class="st0" d="M88.9,1110.7c-4.8,1.8-7,2.5-11.7,4.1,2.2-7.5,12.7-13,18.5-17.2,14.6-10.7,29.3-21.6,42.7-33.6,9.8-8.8,20.9-18.4,27.3-30.1,3.5-6.3,1.7-9.4,1.9-13.5.8-15.8,1.7-31.6,2.9-47.4,1.3,14,2.2,28.1,3,42.2.2,3.9,1.8,7.3.5,12.2-2.9,10.5-13.7,20-21.3,27.6-13,12.9-27.6,24.6-42.2,35.9-7.1,5.5-17.4,11.4-21.5,19.7h0Z"/>
  <path class="st0" d="M110.5,1102.3c-4.4,1.8-8.9,3.6-13.4,5.4,7.2-9.2,18.2-16.1,27.3-23.3,15.4-12.2,30.6-25,43.8-39.1,6.6-7.1,16.8-16.7,18.1-26.7.6-4.7.4-9.2.6-13.8.8-17.7,1.7-35.3,2.8-53,1.2,15.8,1.8,32.1,2.9,47.6,1.2,15.3-1.5,24.3-11.4,36.6-19.7,24.7-48.7,42.6-70.8,66.3h0Z"/>
  <path class="st0" d="M135.4,1091.2c-5,2.3-10.1,4.6-15.1,6.8,25.6-24.1,55.6-44.7,75.7-72.3,4.4-6.1,9-12.7,10.4-20.6,1.1-5.7-.4-11.4-.3-17,.5-19.3,1.7-39.3,2.8-58.9,1.2,17.9,2.1,35.9,2.9,53.8.2,4.8.3,9.7.7,14.4.6,7.6-1.3,13.5-5.1,20-17,28.5-46.9,50.5-72,73.8h0Z"/>
  <path class="st0" d="M162.9,1077.6c-5.4,2.8-10.8,5.6-16.3,8.3,26.4-23.7,59.7-48.3,74.7-79.1,3.2-6.5,3.4-12.3,3.4-19.6,0-5.3.4-10.9.6-16.4.8-21.7,1.7-43.4,2.7-65.1,1.1,19.9,2,39.9,2.9,59.8.2,5.2.2,10.8.7,15.7.6,6.3,1.3,11.9-.5,17.8-8.8,29.7-44.5,56.3-68.2,78.6h0Z"/>
  <path class="st0" d="M192.2,1061.5c-5.7,3.2-11.3,6.4-17,9.5,14.8-13.8,29.6-27.8,42.9-43.1,9.4-10.8,23.5-25.5,25.3-40,1.4-11.7.9-24.2,1.2-36.2.7-23.5,1.7-47.2,2.7-70.8,1.1,22,1.9,44.2,2.8,66.2.5,11.8,1.5,23.9,1.3,35.4-.2,13-12.4,26.9-20.2,36.7-11.9,15-25.4,28.7-39,42.3h0Z"/>
  <path class="st0" d="M222.6,1043.2c-5.7,3.6-11.5,7.1-17.3,10.6,15.9-16.1,32-32.7,44.6-51,6.3-9.2,12.3-19.3,12.6-31,.4-13,.8-26.1,1.2-39.1.8-25.8,1.7-51.6,2.6-77.5,1,24,1.9,48,2.8,72,.4,12.6.7,25.4,1.3,37.8.5,10.4-2.4,19.1-7.5,27.9-10.4,18.1-25.8,34.6-40.4,50.3h0Z"/>
  <path class="st0" d="M253.4,1023.4c-5.7,3.8-11.4,7.5-17.1,11.2,14.6-16.1,30.6-33.2,40.1-52.1,4.5-9,5.4-17.3,5.5-27.4.1-13.8.8-28.1,1.2-42.2.8-28.1,1.7-56.2,2.6-84.3,1,26.2,1.9,52.5,2.7,78.7.4,13.6.5,27.6,1.2,40.8.5,9,1.2,16.8-1.7,25.1-6.3,18-21.6,34.7-34.4,50Z"/>
  <path class="st0" d="M283.8,1002.6c-5.5,3.8-11,7.7-16.5,11.4,12.2-14.9,28-32.1,32.5-50.3,2-8.3,1.3-17.1,1.3-25.9,0-14.8.8-30.2,1.2-45.3.8-30.4,1.6-60.9,2.5-91.3,1,28.8,1.9,57.7,2.7,86.6.4,14.9.6,30,1.2,44.6.4,8.5,1.5,17.3.4,25.6-2.2,15.8-15.6,31.5-25.3,44.6h0Z"/>
  <path class="st0" d="M313,981.7c-5.2,3.8-10.3,7.5-15.5,11.2,8.8-12.5,21.3-27.9,22.1-43.5.4-9,.4-18.3.7-27.5.4-16.4.8-32.8,1.2-49.1.8-33.1,1.6-66.3,2.5-99.4.9,31.2,1.8,62.5,2.7,93.7.4,15.9.8,31.9,1.2,47.8.2,9,.5,18.1.7,27.1.3,14.4-8.2,27.9-15.5,39.7h0Z"/>
  <path class="st0" d="M340.3,961.4c-4.7,3.5-9.4,7.1-14.2,10.6,6.8-12.3,12.3-24.7,13.6-38.8.9-9.7-.4-19.5-.3-29.2.3-17.4.8-35,1.2-52.4.8-35.6,1.6-71.2,2.5-106.8.9,33.4,1.8,66.7,2.6,100.1.4,17.2.8,34.4,1.2,51.6.2,9.7.4,19.5.7,29.2.4,13-1.9,23.9-7.2,35.9h0Z"/>
  <path class="st0" d="M365.1,942.7c-4.2,3.2-8.3,6.3-12.5,9.5,4.5-12.1,5.3-23,5.5-35.7.1-10.4.4-21,.6-31.4.4-18.8.8-37.5,1.1-56.3.8-37.7,1.6-75.4,2.4-113.2.9,36.2,1.8,72.4,2.6,108.6.4,17.7.8,35.5,1.2,53.2.2,10.4.4,21,.7,31.3.3,11.7,1.1,22.3-1.6,33.9h0Z"/>
  <path class="st0" d="M386.4,926.3c-4,3.1-6.1,4.7-10.4,8.1,3.5-22.8,1.7-45.6,2-68.4.2-19.2.7-38.6,1.1-57.9.8-40.6,1.6-81.2,2.4-121.9,1.8,80,3.8,160,4.9,240.1h0Z"/>
  <path class="st0" d="M405.5,911.4c-3.8,3-5.7,4.5-9.6,7.4,1.5-87.5,3-175,4.7-262.4,1.8,85,3.3,170,4.9,255Z"/>
  <path class="st0" d="M424.6,896.5c-3.8,2.9-5.6,4.4-9.4,7.3,1.5-92.5,3-184.9,4.6-277.4,1.7,90,3.3,180,4.8,270Z"/>
  <path class="st0" d="M443.7,881.5c-3.7,2.9-5.5,4.3-9.2,7.2,1.5-97.4,2.9-194.9,4.5-292.3,1.7,95,3.2,190.1,4.7,285.1Z"/>
  <path class="st0" d="M462.7,866.6c-3.6,2.8-5.4,4.2-9,7.1,1.4-102.4,2.9-204.9,4.4-307.3,1.7,100.1,3.2,200.1,4.6,300.2h0Z"/>
  <path class="st0" d="M481.8,851.7c-3.6,2.8-5.3,4.1-8.9,6.9,1.4-107.4,2.8-214.8,4.3-322.2,1.6,105.1,3.1,210.2,4.5,315.3Z"/>
  <path class="st0" d="M500.9,836.9c-3.5,2.7-5.2,4-8.7,6.7,1.4-112.3,2.8-224.7,4.2-337,1.6,110.1,3,220.2,4.4,330.3Z"/>
  <path class="st0" d="M520,822.2c-3.4,2.6-5.1,3.9-8.5,6.5,1.4-117.2,2.7-234.4,4.2-351.6,1.6,115,3,230.1,4.3,345.1h0Z"/>
  <path class="st0" d="M539.1,807.8c-3.3,2.5-5,3.8-8.3,6.3,1.3-122,2.6-244.1,4.1-366.1,1.4,119.9,2.9,239.9,4.2,359.8Z"/>
  <path class="st0" d="M558.2,793.6c-3.3,2.4-4.9,3.6-8.1,6,1.3-126.8,2.7-253.5,4-380.3,1.5,124.8,2.8,249.5,4.2,374.3Z"/>
  <path class="st0" d="M577.2,779.7c-3.2,2.3-4.8,3.5-8,5.8,1.3-131.4,2.6-262.8,3.9-394.2,1.4,129.5,2.8,259,4.1,388.4h0Z"/>
  <path class="st0" d="M596.3,766.1c-3.1,2.2-4.7,3.3-7.8,5.5,1.2-135.9,2.5-271.9,3.8-407.8,1.4,134.1,2.7,268.2,4,402.3h0Z"/>
  <path class="st0" d="M615.4,752.9c-3,2.1-4.6,3.1-7.6,5.2,1.2-140.3,2.5-280.7,3.7-421,1.3,138.6,2.6,277.2,3.9,415.8Z"/>
  <path class="st0" d="M634.5,740.2c-3,2-4.5,2.9-7.5,4.9,1.2-144.6,2.4-289.2,3.6-433.7,1.3,142.9,2.6,285.9,3.8,428.8Z"/>
  <path class="st0" d="M653.6,727.9c-2.9,1.8-4.4,2.8-7.3,4.6,1.2-148.7,2.3-297.4,3.6-446,1.2,147.1,2.5,294.3,3.7,441.4h0Z"/>
  <path class="st0" d="M672.6,716.1c-2.8,1.7-4.3,2.6-7.1,4.3,1.2-152.6,2.3-305.2,3.5-457.8,1.2,151.2,2.4,302.3,3.6,453.5h0Z"/>
  <path class="st0" d="M691.7,705c-2.8,1.6-4.2,2.4-6.9,4,1.2-156.3,2.2-312.6,3.4-469,1.2,155,2.3,310,3.5,465Z"/>
  <path class="st0" d="M710.8,694.4c-2.7,1.4-4,2.2-6.7,3.7,1.1-159.8,2.2-319.7,3.3-479.5,1.2,158.6,2.3,317.2,3.4,475.9h0Z"/>
  <path class="st0" d="M729.9,684.6c-2.6,1.3-3.9,2-6.6,3.3,1.1-163.1,2.2-326.3,3.2-489.4,1.2,162,2.3,324,3.3,486.1Z"/>
  <path class="st0" d="M749,675.4c-2.6,1.2-3.8,1.8-6.4,3,1-166.2,2.1-332.4,3.1-498.6,1.1,165.2,2.2,330.4,3.3,495.6h0Z"/>
  <path class="st0" d="M768,667c-2.5,1-3.7,1.6-6.2,2.6,1-169,2-338,3-507,1.1,168.1,2.1,336.2,3.2,504.3Z"/>
  <path class="st0" d="M787.1,659.4c-2.4.9-3.6,1.4-6,2.3,1-171.5,2-343,3-514.6,1,170.7,2.1,341.5,3.1,512.2h0Z"/>
  <path class="st0" d="M806.2,652.7c-2.3.8-3.5,1.2-5.9,2,.9-173.8,1.9-347.5,2.9-521.3,1,173.1,2,346.2,3,519.3h0Z"/>
  <path class="st0" d="M825.3,646.9c-2.3.6-3.4,1-5.7,1.6.9-175.7,1.9-351.4,2.8-527.1,1,175.2,1.9,350.3,2.9,525.5Z"/>
  <path class="st0" d="M844.4,642c-2.2.5-3.3.8-5.5,1.3.9-177.3,1.8-354.7,2.7-532,1,176.9,1.9,353.8,2.8,530.7h0Z"/>
  <path class="st0" d="M863.5,638.1c-2.1.4-3.2.6-5.3,1,.8-178.6,1.7-357.2,2.6-535.9.9,178.3,1.8,356.6,2.7,534.9Z"/>
  <path class="st0" d="M882.5,635.3c-2.1.2-3.1.4-5.2.7.8-179.6,1.7-359.1,2.5-538.7.9,179.3,1.8,358.7,2.6,538h0Z"/>
  <path class="st0" d="M901.6,633.6c-2,.1-3,.2-5,.3.8-180.1,1.6-360.3,2.4-540.4.8,180,1.6,360.1,2.5,540.1h0Z"/>
  <path class="st0" d="M920.7,633c-1.9,0-2.9,0-4.8,0,.8-180.3,1.6-360.7,2.4-541,.8,180.3,1.6,360.7,2.5,541Z"/>
</svg>