<svg width="20" height="16" viewBox="0 0 20 16" fill="none" xmlns="http://www.w3.org/2000/svg">
<g clip-path="url(#clip0_940_353)">
<path d="M1.76768 13.602C0.617517 12.4102 0 11.0735 0 8.90659C0 5.09358 2.74365 1.67604 6.7335 -0.0136719L7.73068 1.48756C4.0066 3.4529 3.27853 6.00325 2.9882 7.61125C3.58785 7.30839 4.37287 7.20272 5.14225 7.27244C7.15672 7.45438 8.74462 9.06782 8.74462 11.0735C8.74462 12.0847 8.33285 13.0546 7.59989 13.7697C6.86694 14.4847 5.87284 14.8865 4.83628 14.8865C3.6381 14.8865 2.4924 14.3527 1.76768 13.602ZM12.9343 13.602C11.7842 12.4102 11.1667 11.0735 11.1667 8.90659C11.1667 5.09358 13.9103 1.67604 17.9002 -0.0136719L18.8973 1.48756C15.1733 3.4529 14.4452 6.00325 14.1549 7.61125C14.7545 7.30839 15.5395 7.20272 16.3089 7.27244C18.3234 7.45438 19.9113 9.06782 19.9113 11.0735C19.9113 12.0847 19.4995 13.0546 18.7666 13.7697C18.0336 14.4847 17.0395 14.8865 16.0029 14.8865C14.8048 14.8865 13.6591 14.3527 12.9343 13.602Z" fill="#111111"/>
</g>
<defs>
<clipPath id="clip0_940_353">
<rect width="20" height="16" fill="white"/>
</clipPath>
</defs>
</svg>
