<svg width="57" height="50" viewBox="0 0 57 50" fill="none" xmlns="http://www.w3.org/2000/svg">
<path d="M49.8797 33.332C49.8797 27.7068 45.3196 23.1468 39.6945 23.1468C34.0694 23.1468 29.5093 27.7068 29.5093 33.332C29.5093 38.9571 34.0694 43.5171 39.6945 43.5171C45.3196 43.5171 49.8797 38.9571 49.8797 33.332ZM51.7315 33.332C51.7315 39.9798 46.3424 45.369 39.6945 45.369C33.0466 45.369 27.6575 39.9798 27.6575 33.332C27.6575 26.6841 33.0466 21.2949 39.6945 21.2949C46.3424 21.2949 51.7315 26.6841 51.7315 33.332Z" fill="#1C1C1C"/>
<path d="M46.176 33.3333C46.176 29.7544 43.2734 26.8519 39.6945 26.8519C39.1831 26.8519 38.7686 26.4373 38.7686 25.9259C38.7686 25.4146 39.1831 25 39.6945 25C44.2961 25 48.0278 28.7317 48.0278 33.3333C48.0278 33.8447 47.6133 34.2593 47.1019 34.2593C46.5905 34.2593 46.176 33.8447 46.176 33.3333Z" fill="#1C1C1C"/>
<path d="M47.5514 41.1892C47.9016 40.8389 48.4626 40.8279 48.8261 41.1562L48.8607 41.1892L56.0622 48.3904L56.0949 48.425C56.4234 48.7885 56.4125 49.3497 56.0622 49.7C55.7119 50.0503 55.1507 50.0612 54.7872 49.7328L54.7526 49.7L47.5514 42.4985L47.5184 42.4639C47.1901 42.1005 47.2011 41.5395 47.5514 41.1892Z" fill="#1C1C1C"/>
<path d="M42.4443 44.4435C42.4443 43.9321 42.8589 43.5176 43.3703 43.5176C43.8816 43.5176 44.2962 43.9321 44.2962 44.4435V49.0731C44.2962 49.5845 43.8816 49.9991 43.3703 49.9991H22.9999C22.4885 49.9991 22.074 49.5845 22.074 49.0731C22.074 48.5618 22.4885 48.1472 22.9999 48.1472H42.4443V44.4435Z" fill="#1C1C1C"/>
<path d="M16.4791 0C16.9905 0 17.4051 0.414551 17.4051 0.925926C17.4051 1.4373 16.9905 1.85185 16.4791 1.85185H2.59025V48.1482H15.5532V42.5926C15.5532 42.0812 15.9678 41.6667 16.4791 41.6667H26.7036L26.7513 41.6678C27.2406 41.6926 27.6296 42.0972 27.6296 42.5926C27.6296 43.088 27.2406 43.4926 26.7513 43.5174L26.7036 43.5185H17.4051V49.0741C17.4051 49.5855 16.9905 50 16.4791 50H1.66433C1.15295 50 0.738403 49.5855 0.738403 49.0741V0.925926L0.739534 0.878228C0.764356 0.389018 1.16895 0 1.66433 0H16.4791Z" fill="#1C1C1C"/>
<path d="M42.4444 22.2222V1.85185H23.9259C23.4146 1.85185 23 1.4373 23 0.925926C23 0.414551 23.4146 0 23.9259 0H43.3704L43.4181 0.00113028C43.9073 0.0259525 44.2963 0.430547 44.2963 0.925926V22.2222C44.2963 22.7336 43.8817 23.1482 43.3704 23.1482C42.859 23.1482 42.4444 22.7336 42.4444 22.2222Z" fill="#1C1C1C"/>
<path d="M8.14587 41.667V36.1115L8.147 36.0638C8.17183 35.5746 8.57642 35.1855 9.0718 35.1855H28.5556L28.6033 35.1867C29.0925 35.2115 29.4815 35.6161 29.4815 36.1115C29.4815 36.6069 29.0925 37.0115 28.6033 37.0363L28.5556 37.0374H9.99772V41.667C9.99772 42.1784 9.58317 42.593 9.0718 42.593C8.56042 42.593 8.14587 42.1784 8.14587 41.667Z" fill="#1C1C1C"/>
<path d="M28.5556 20.3713V16.6283H17.4445V22.2232C17.4445 22.7345 17.0299 23.1491 16.5185 23.1491H9.0718C8.56042 23.1491 8.14587 22.7345 8.14587 22.2232V7.40835C8.14587 6.89697 8.56042 6.48242 9.0718 6.48242C9.58317 6.48242 9.99772 6.89697 9.99772 7.40835V21.2972H15.5926V15.7023C15.5926 15.191 16.0072 14.7764 16.5185 14.7764H29.4815C29.9929 14.7764 30.4074 15.191 30.4074 15.7023V20.3713C30.4074 20.8827 29.9929 21.2972 29.4815 21.2972C28.9701 21.2972 28.5556 20.8827 28.5556 20.3713Z" fill="#1C1C1C"/>
<path d="M16.5184 28.7031L16.5661 28.7043C17.0554 28.7291 17.4444 29.1337 17.4444 29.6291C17.4444 30.1244 17.0554 30.529 16.5661 30.5538L16.5184 30.555H2.59023C2.07886 30.555 1.66431 30.1404 1.66431 29.6291C1.66431 29.1177 2.07886 28.7031 2.59023 28.7031H16.5184Z" fill="#1C1C1C"/>
<path d="M23 23.1486C23 22.6372 23.4146 22.2227 23.9259 22.2227C24.4373 22.2227 24.8519 22.6372 24.8519 23.1486V28.7041H28.5556C29.0669 28.7041 29.4815 29.1187 29.4815 29.6301C29.4815 30.1414 29.0669 30.556 28.5556 30.556H23.9259C23.4146 30.556 23 30.1414 23 29.6301V23.1486Z" fill="#1C1C1C"/>
<path d="M16.4768 2.82225e-06C16.9721 -0.00120719 17.3776 0.386821 17.4036 0.87597L17.405 0.923668L17.4443 16.6644L17.4432 16.7121C17.4195 17.2014 17.016 17.5914 16.5206 17.5926C16.0253 17.5938 15.6198 17.2058 15.5938 16.7166L15.5924 16.6689L15.5531 0.928189L15.5542 0.880491C15.5779 0.391248 15.9814 0.0012412 16.4768 2.82225e-06Z" fill="#1C1C1C"/>
<path d="M35.037 22.2222V9.25926H23.9259C23.4146 9.25926 23 8.84471 23 8.33333V0.925926C23 0.414551 23.4146 0 23.9259 0C24.4373 0 24.8519 0.414551 24.8519 0.925926V7.40741H35.963C36.4743 7.40741 36.8889 7.82196 36.8889 8.33333V22.2222C36.8889 22.7336 36.4743 23.1482 35.963 23.1482C35.4516 23.1482 35.037 22.7336 35.037 22.2222Z" fill="#1C1C1C"/>
</svg>
