<?xml version="1.0" standalone="no"?>
<!DOCTYPE svg PUBLIC "-//W3C//DTD SVG 20010904//EN"
 "http://www.w3.org/TR/2001/REC-SVG-20010904/DTD/svg10.dtd">
<svg version="1.0" xmlns="http://www.w3.org/2000/svg"
 width="512.000000pt" height="512.000000pt" viewBox="0 0 512.000000 512.000000"
 preserveAspectRatio="xMidYMid meet">
<metadata>
Created by potrace 1.11, written by Peter Selinger 2001-2013
</metadata>
<g transform="translate(0.000000,512.000000) scale(0.100000,-0.100000)"
fill="#000000" stroke="none">
<path d="M2551 5013 c-1 -43 -4 -130 -6 -193 -2 -63 -7 -200 -10 -305 -6 -197
-11 -371 -20 -635 -2 -85 -7 -240 -10 -345 -4 -104 -8 -237 -10 -295 -3 -93
-13 -404 -20 -640 -2 -79 -14 -458 -20 -650 -4 -112 -3 -107 -17 -107 -17 -1
-381 -80 -438 -95 l-45 -13 50 -6 c74 -10 137 -19 165 -24 27 -5 55 -9 140
-21 30 -4 58 -9 63 -10 4 -1 15 -2 25 -3 18 -1 22 -20 68 -308 5 -34 15 -90
20 -120 3 -13 6 -35 8 -50 5 -36 26 -170 32 -203 2 -14 7 -45 11 -70 8 -61 19
-80 21 -35 1 20 3 39 6 43 2 4 7 28 11 52 3 25 13 86 21 135 8 50 17 101 19
115 2 14 11 66 19 115 17 105 22 134 38 235 6 41 14 78 17 82 4 4 27 10 51 13
25 3 99 14 165 25 66 10 144 21 173 25 48 6 74 25 34 25 -10 0 -101 18 -202
40 -102 22 -198 43 -215 46 -16 3 -33 8 -37 12 -7 7 -16 244 -32 927 -3 99 -8
270 -11 380 -7 237 -13 474 -20 755 -8 314 -14 524 -21 770 -3 124 -7 264 -8
312 -2 110 -13 124 -15 21z"/>
<path d="M2441 4855 c-64 -94 -65 -95 -105 -95 -86 -1 -316 -15 -401 -25 -121
-14 -242 -28 -260 -31 -11 -1 -40 -6 -65 -9 -394 -57 -831 -203 -1074 -359
l-48 -31 7 -220 c4 -121 8 -236 10 -255 2 -19 6 -71 10 -115 3 -44 8 -93 10
-110 2 -16 7 -57 11 -90 8 -77 11 -96 19 -147 4 -24 9 -56 11 -73 10 -65 35
-203 50 -270 9 -38 17 -78 20 -89 12 -64 60 -240 95 -351 82 -262 218 -595
243 -595 57 0 378 355 611 675 262 359 543 847 727 1260 15 33 38 85 51 115
76 168 138 340 143 390 7 85 11 520 5 520 -3 0 -35 -43 -70 -95z m-341 -459
c0 -2 -48 -82 -106 -177 -59 -96 -117 -192 -129 -214 -138 -242 -392 -590
-571 -785 -179 -193 -363 -360 -374 -339 -9 16 -42 141 -64 239 -38 171 -56
394 -57 729 -1 211 -13 184 111 265 146 96 361 170 642 221 105 19 249 38 383
50 39 4 71 8 72 8 3 4 93 6 93 3z"/>
<path d="M2596 4814 c8 -402 11 -426 47 -521 204 -528 487 -1060 811 -1526 90
-131 265 -361 311 -411 6 -6 46 -52 89 -101 114 -130 255 -265 275 -265 40 0
206 422 297 755 49 180 77 311 118 545 2 14 7 48 11 75 3 28 8 64 11 80 28
205 39 350 49 650 l7 210 -49 31 c-208 134 -489 238 -878 323 -84 18 -329 57
-425 67 -25 2 -63 6 -85 9 -108 11 -284 22 -391 24 l-62 1 -63 95 c-35 52 -67
95 -70 95 -3 0 -4 -61 -3 -136z m589 -429 c17 -2 59 -7 95 -10 36 -3 90 -10
120 -15 30 -5 75 -12 100 -15 40 -6 67 -11 170 -31 198 -40 473 -148 573 -226
73 -57 68 -33 63 -358 -3 -162 -7 -308 -9 -325 -3 -16 -8 -57 -12 -90 -4 -32
-8 -67 -10 -76 -2 -9 -6 -33 -9 -52 -10 -65 -46 -221 -62 -269 -18 -54 -21
-54 -89 8 -270 244 -494 502 -692 799 -71 106 -370 592 -402 653 l-13 24 74
-7 c40 -4 87 -8 103 -10z"/>
<path d="M2443 3658 c-247 -416 -510 -844 -626 -1018 -61 -91 -211 -296 -227
-310 -4 -3 -51 -61 -106 -130 -139 -174 -405 -501 -426 -524 -10 -11 -18 -23
-18 -26 0 -10 163 -252 217 -324 215 -281 543 -615 817 -831 99 -77 295 -216
386 -273 l101 -63 90 57 c49 31 137 89 194 129 472 331 947 826 1214 1268 l23
37 -58 73 c-32 39 -60 74 -64 77 -18 16 -485 600 -551 690 -77 104 -173 248
-331 500 -150 240 -275 442 -298 481 -51 88 -146 239 -151 239 -3 0 -4 -15 -3
-32 1 -18 5 -136 8 -263 3 -126 9 -324 12 -438 l6 -208 40 -67 c170 -279 441
-682 622 -921 72 -95 142 -188 155 -207 l23 -33 -22 -28 c-98 -125 -439 -471
-577 -585 -111 -92 -187 -145 -271 -187 l-62 -31 -59 29 c-82 40 -162 96 -275
191 -214 180 -598 585 -589 620 3 10 20 36 37 57 136 159 437 599 699 1023 90
145 81 101 92 455 5 178 12 416 19 583 1 23 -1 42 -4 42 -3 0 -20 -24 -37 -52z"/>
</g>
</svg>
