<svg width="203" height="56" viewBox="0 0 203 56" fill="none" xmlns="http://www.w3.org/2000/svg">
<g clip-path="url(#clip0_862_414)">
<path d="M59.5082 35.2517H57.1456C56.8808 35.2517 56.6628 35.1901 56.4916 35.0668C56.3204 34.9435 56.2017 34.786 56.1355 34.5931L55.3594 32.3022H50.3637L49.5875 34.5931C49.527 34.762 49.4106 34.9127 49.236 35.0485C49.0614 35.1843 48.8479 35.2517 48.5957 35.2517H46.2148L51.3007 22.1101H54.4212L59.5082 35.2517ZM51.0667 30.2281H54.6563L53.4476 26.6291C53.3689 26.4008 53.2775 26.1314 53.1725 25.8221C53.0675 25.5128 52.9637 25.1772 52.861 24.8165C52.7651 25.1829 52.6658 25.523 52.5631 25.8358C52.4603 26.1486 52.3645 26.4191 52.2743 26.6474L51.0656 30.2281H51.0667Z" fill="white"/>
<path d="M60.2109 35.2517V22.1101H65.0446C65.9531 22.1101 66.7247 22.1945 67.3627 22.3623C67.9996 22.5313 68.52 22.7687 68.9229 23.0746C69.3258 23.3817 69.6192 23.7538 69.8029 24.1932C69.9855 24.6327 70.078 25.1224 70.078 25.6634C70.078 25.9579 70.0358 26.2422 69.9513 26.5161C69.8668 26.7901 69.7345 27.0469 69.5541 27.2877C69.3738 27.5286 69.1421 27.7466 68.8602 27.9418C68.5771 28.137 68.2381 28.3071 67.8409 28.4509C68.7061 28.6609 69.3464 29.0033 69.7618 29.4748C70.1773 29.9473 70.3839 30.5523 70.3839 31.292C70.3839 31.8513 70.2755 32.3718 70.0597 32.8523C69.8429 33.334 69.5256 33.753 69.109 34.1102C68.6912 34.4675 68.1754 34.7472 67.5624 34.9492C66.9495 35.1512 66.2487 35.2517 65.4612 35.2517H60.2121H60.2109ZM63.2595 27.6393H64.8471C65.1838 27.6393 65.4874 27.6153 65.758 27.5674C66.0285 27.5194 66.259 27.435 66.4485 27.3151C66.6379 27.1953 66.7817 27.0298 66.881 26.8197C66.9803 26.6097 67.0294 26.3449 67.0294 26.0264C67.0294 25.7079 66.9906 25.4534 66.9119 25.2468C66.8331 25.0391 66.7133 24.8724 66.5512 24.7457C66.3891 24.619 66.1825 24.5288 65.9337 24.4752C65.6838 24.4204 65.3882 24.3941 65.0446 24.3941H63.2584V27.6416L63.2595 27.6393ZM63.2595 29.6779V32.9516H65.4064C65.8093 32.9516 66.138 32.9003 66.3937 32.7987C66.6494 32.696 66.8491 32.5647 66.9929 32.4015C67.1379 32.2394 67.236 32.0556 67.2908 31.8513C67.3456 31.647 67.3718 31.4392 67.3718 31.2292C67.3718 30.9883 67.3399 30.7726 67.2771 30.5797C67.2143 30.3879 67.1059 30.2247 66.9518 30.0934C66.7989 29.961 66.5957 29.8594 66.3435 29.7864C66.0912 29.7145 65.7716 29.6779 65.3882 29.6779H63.2595Z" fill="white"/>
<path d="M74.7322 30.3902V35.2517H71.6836V22.1101H75.958C76.9076 22.1101 77.718 22.2082 78.3879 22.4034C79.0579 22.5986 79.6058 22.8714 80.0292 23.2196C80.4527 23.5677 80.7608 23.9798 80.9537 24.4558C81.1466 24.9306 81.2425 25.4477 81.2425 26.007C81.2425 26.4339 81.1854 26.8369 81.0713 27.2158C80.9571 27.5948 80.7871 27.9452 80.5622 28.2671C80.3362 28.589 80.06 28.8755 79.7325 29.1289C79.4049 29.3812 79.0271 29.5889 78.6002 29.751C78.8045 29.8537 78.9951 29.9793 79.1732 30.13C79.3501 30.2806 79.5053 30.4633 79.6377 30.6801L82.4341 35.2528H79.6743C79.1629 35.2528 78.7965 35.0599 78.574 34.6753L76.3917 30.8605C76.2958 30.6916 76.1828 30.5717 76.0539 30.4998C75.9249 30.4279 75.7423 30.3914 75.5083 30.3914H74.7322V30.3902ZM74.7322 28.2888H75.9591C76.3734 28.2888 76.7273 28.2363 77.0183 28.1313C77.3094 28.0263 77.549 27.8801 77.7351 27.6941C77.9211 27.508 78.0569 27.29 78.1403 27.04C78.2247 26.7901 78.267 26.5207 78.267 26.233C78.267 25.6554 78.0786 25.2046 77.7031 24.8804C77.3276 24.5562 76.7455 24.393 75.958 24.393H74.731V28.2899L74.7322 28.2888Z" fill="white"/>
<path d="M94.104 35.2517H91.7414C91.4766 35.2517 91.2586 35.1901 91.0874 35.0668C90.9162 34.9435 90.7975 34.786 90.7313 34.5931L89.9552 32.3022H84.9594L84.1833 34.5931C84.1239 34.762 84.0064 34.9127 83.8318 35.0485C83.6571 35.1843 83.4437 35.2517 83.1915 35.2517H80.8106L85.8976 22.1101H89.0181L94.104 35.2517ZM85.6625 30.2281H89.2521L88.0434 26.6291C87.9658 26.4008 87.8733 26.1314 87.7683 25.8221C87.6633 25.5128 87.5594 25.1772 87.4567 24.8165C87.3608 25.1829 87.2615 25.523 87.1588 25.8358C87.0561 26.1486 86.9602 26.4191 86.8701 26.6474L85.6625 30.2281Z" fill="white"/>
<path d="M106.641 35.2517H103.574V29.6951H98.2346V35.2517H95.1677V22.1101H98.2346V27.6028H103.574V22.1101H106.641V35.2517Z" fill="white"/>
<path d="M121.034 35.2517H118.67C118.405 35.2517 118.187 35.1901 118.016 35.0668C117.845 34.9435 117.726 34.786 117.66 34.5931L116.884 32.3022H111.887L111.112 34.5931C111.052 34.762 110.935 34.9127 110.759 35.0485C110.585 35.1843 110.371 35.2517 110.119 35.2517H107.738L112.824 22.1101H115.945L121.032 35.2517H121.034ZM112.592 30.2281H116.182L114.973 26.6291C114.895 26.4008 114.803 26.1314 114.698 25.8221C114.593 25.5128 114.489 25.1772 114.387 24.8165C114.291 25.1829 114.192 25.523 114.089 25.8358C113.986 26.1486 113.89 26.4191 113.8 26.6474L112.591 30.2281H112.592Z" fill="white"/>
<path d="M129.164 29.9565C129.276 30.203 129.382 30.4564 129.484 30.7144C129.587 30.4496 129.694 30.1927 129.809 29.9428C129.923 29.6928 130.04 29.4508 130.161 29.2157L133.533 22.5701C133.594 22.4559 133.656 22.3669 133.718 22.3041C133.781 22.2413 133.852 22.1945 133.931 22.1637C134.009 22.134 134.097 22.1181 134.197 22.1181H136.871V35.2505H134.183V27.6918C134.183 27.3254 134.201 26.9282 134.238 26.5013L130.756 33.2564C130.648 33.4664 130.502 33.6263 130.319 33.7347C130.136 33.8431 129.927 33.8968 129.693 33.8968H129.278C129.044 33.8968 128.836 33.842 128.652 33.7347C128.468 33.6263 128.322 33.4676 128.215 33.2564L124.715 26.4921C124.739 26.7022 124.757 26.911 124.77 27.1188C124.781 27.3265 124.788 27.5172 124.788 27.6918V35.2505H122.1V22.1181H124.775C124.874 22.1181 124.963 22.1329 125.041 22.1637C125.118 22.1945 125.189 22.2402 125.253 22.3041C125.316 22.3669 125.377 22.4559 125.438 22.5701L128.82 29.243C128.939 29.4725 129.056 29.7099 129.167 29.9565H129.164Z" fill="white"/>
<path d="M145.173 33.6411C145.521 33.6411 145.842 33.624 146.133 33.5909C146.424 33.5578 146.7 33.5087 146.958 33.4425C147.217 33.3763 147.461 33.2975 147.689 33.2039C147.917 33.1103 148.145 33.0042 148.375 32.8843V30.0341H146.373C146.259 30.0341 146.167 30.001 146.098 29.9348C146.028 29.8686 145.994 29.7875 145.994 29.6916V28.6997H149.961V33.6594C149.637 33.8934 149.298 34.0988 148.947 34.2723C148.594 34.447 148.218 34.5919 147.819 34.7095C147.418 34.8271 146.99 34.9138 146.534 34.9709C146.077 35.028 145.581 35.0565 145.045 35.0565C144.107 35.0565 143.248 34.8956 142.466 34.5737C141.684 34.2518 141.011 33.8009 140.446 33.221C139.881 32.6412 139.44 31.9449 139.124 31.1333C138.808 30.3217 138.65 29.4291 138.65 28.4543C138.65 27.4795 138.806 26.5698 139.115 25.7582C139.424 24.9466 139.866 24.2503 140.44 23.6704C141.014 23.0906 141.708 22.6408 142.523 22.3224C143.338 22.0039 144.25 21.8441 145.26 21.8441C145.771 21.8441 146.246 21.8818 146.684 21.9571C147.123 22.0325 147.53 22.1409 147.907 22.2813C148.282 22.4228 148.629 22.594 148.948 22.7949C149.266 22.997 149.564 23.223 149.84 23.4764L149.344 24.2697C149.241 24.4318 149.11 24.5128 148.947 24.5128C148.851 24.5128 148.745 24.4797 148.63 24.4135C148.48 24.3291 148.312 24.2275 148.126 24.1065C147.94 23.9866 147.713 23.8702 147.445 23.7595C147.177 23.6488 146.861 23.554 146.497 23.4753C146.133 23.3965 145.702 23.3577 145.203 23.3577C144.476 23.3577 143.817 23.4764 143.228 23.7138C142.639 23.9512 142.137 24.2903 141.723 24.7331C141.309 25.1749 140.989 25.7102 140.768 26.338C140.545 26.967 140.434 27.6713 140.434 28.4532C140.434 29.2351 140.55 29.9998 140.781 30.6402C141.013 31.2806 141.338 31.8239 141.759 32.2679C142.181 32.7131 142.679 33.0521 143.256 33.2872C143.833 33.5212 144.47 33.6388 145.168 33.6388L145.173 33.6411Z" fill="white"/>
<path d="M153.938 29.5193V34.9127H152.197V21.9891H155.85C156.667 21.9891 157.373 22.0724 157.969 22.2368C158.564 22.4023 159.056 22.6408 159.444 22.9536C159.832 23.2664 160.118 23.6442 160.305 24.0859C160.492 24.5277 160.585 25.0219 160.585 25.5698C160.585 26.0264 160.513 26.4533 160.368 26.8505C160.223 27.2478 160.014 27.6039 159.742 27.919C159.468 28.2351 159.134 28.5034 158.741 28.726C158.347 28.9486 157.901 29.1163 157.402 29.2305C157.619 29.3572 157.81 29.5398 157.979 29.7807L161.749 34.9127H160.198C159.879 34.9127 159.645 34.7894 159.495 34.5428L156.141 29.9256C156.038 29.7807 155.927 29.6779 155.807 29.614C155.688 29.5512 155.507 29.5193 155.266 29.5193H153.94H153.938ZM153.938 28.2477H155.769C156.28 28.2477 156.728 28.1861 157.117 28.0628C157.505 27.9395 157.829 27.7649 158.091 27.5388C158.353 27.314 158.549 27.0446 158.681 26.7318C158.814 26.4191 158.88 26.0732 158.88 25.6943C158.88 24.9249 158.625 24.345 158.117 23.9535C157.61 23.5631 156.853 23.368 155.85 23.368H153.938V28.2466V28.2477Z" fill="white"/>
<path d="M174.589 28.4554C174.589 29.4234 174.436 30.3115 174.129 31.1208C173.822 31.9289 173.389 32.6252 172.83 33.2085C172.271 33.7918 171.598 34.2438 170.814 34.5657C170.03 34.8876 169.163 35.0485 168.213 35.0485C167.264 35.0485 166.397 34.8876 165.617 34.5657C164.835 34.2438 164.165 33.7918 163.606 33.2085C163.046 32.6252 162.614 31.9289 162.307 31.1208C162 30.3126 161.847 29.4234 161.847 28.4554C161.847 27.4875 162 26.5994 162.307 25.7901C162.614 24.982 163.046 24.2834 163.606 23.6978C164.165 23.1111 164.835 22.6557 165.617 22.3315C166.398 22.0073 167.264 21.8453 168.213 21.8453C169.163 21.8453 170.03 22.0073 170.814 22.3315C171.598 22.6557 172.271 23.1111 172.83 23.6978C173.389 24.2834 173.822 24.982 174.129 25.7901C174.435 26.5983 174.589 27.4863 174.589 28.4554ZM172.795 28.4554C172.795 27.6621 172.686 26.9499 172.469 26.3186C172.252 25.6874 171.947 25.1532 171.549 24.7172C171.152 24.2811 170.672 23.9455 170.107 23.7115C169.542 23.4775 168.911 23.36 168.213 23.36C167.516 23.36 166.894 23.4775 166.329 23.7115C165.764 23.9455 165.281 24.2811 164.882 24.7172C164.482 25.1532 164.174 25.6863 163.957 26.3186C163.74 26.9499 163.633 27.6621 163.633 28.4554C163.633 29.2488 163.741 29.9599 163.957 30.5888C164.174 31.2166 164.482 31.7486 164.882 32.1846C165.281 32.6206 165.764 32.9539 166.329 33.1857C166.894 33.4174 167.522 33.5327 168.213 33.5327C168.905 33.5327 169.542 33.4162 170.107 33.1857C170.672 32.9539 171.152 32.6206 171.549 32.1846C171.947 31.7486 172.252 31.2166 172.469 30.5888C172.686 29.9599 172.795 29.2499 172.795 28.4554Z" fill="white"/>
<path d="M181.37 33.5235C181.905 33.5235 182.384 33.4333 182.805 33.253C183.225 33.0726 183.581 32.8204 183.873 32.4951C184.164 32.1709 184.388 31.7828 184.541 31.3319C184.694 30.881 184.771 30.3845 184.771 29.8435V21.9879H186.512V29.8435C186.512 30.5888 186.393 31.2806 186.156 31.9175C185.918 32.5544 185.578 33.1069 185.137 33.5726C184.695 34.0383 184.155 34.4036 183.518 34.6684C182.881 34.9332 182.166 35.0656 181.371 35.0656C180.577 35.0656 179.862 34.9332 179.225 34.6684C178.589 34.4036 178.048 34.0383 177.602 33.5726C177.157 33.1069 176.816 32.5556 176.579 31.9175C176.341 31.2806 176.223 30.5888 176.223 29.8435V21.9879H177.963V29.8343C177.963 30.3754 178.04 30.8719 178.194 31.3228C178.347 31.7737 178.569 32.1618 178.86 32.4859C179.151 32.8101 179.51 33.0647 179.933 33.2484C180.357 33.4322 180.836 33.5235 181.371 33.5235H181.37Z" fill="white"/>
<path d="M190.803 30.0786V34.9127H189.062V21.9891H192.877C193.694 21.9891 194.406 22.0838 195.01 22.2733C195.614 22.4628 196.115 22.731 196.512 23.0803C196.909 23.4296 197.205 23.8497 197.4 24.3428C197.595 24.8359 197.693 25.3861 197.693 25.9933C197.693 26.6006 197.588 27.145 197.378 27.6439C197.167 28.1427 196.859 28.573 196.454 28.9337C196.048 29.2944 195.544 29.5752 194.944 29.7773C194.342 29.9793 193.654 30.0797 192.878 30.0797H190.804L190.803 30.0786ZM190.803 28.6894H192.877C193.376 28.6894 193.816 28.6232 194.199 28.4908C194.58 28.3584 194.901 28.1735 195.159 27.9361C195.416 27.6987 195.613 27.4144 195.744 27.0834C195.876 26.7524 195.943 26.3894 195.943 25.9922C195.943 25.168 195.688 24.5254 195.18 24.062C194.672 23.5997 193.904 23.368 192.876 23.368H190.802V28.6894H190.803Z" fill="white"/>
<path d="M200.494 23.0027V23.3223H199.864V25.0961H199.475V23.3223H198.843V23.0027H200.494Z" fill="white"/>
<path d="M201.828 24.3051C201.842 24.3382 201.856 24.3724 201.869 24.4055C201.883 24.3713 201.897 24.3371 201.912 24.3028C201.926 24.2686 201.941 24.2366 201.957 24.2058L202.577 23.0461C202.585 23.0324 202.593 23.0198 202.601 23.0118C202.609 23.0027 202.618 22.997 202.628 22.9936C202.639 22.989 202.65 22.9867 202.663 22.9867C202.675 22.9867 202.69 22.9856 202.707 22.9856H203V25.079H202.657V23.7264C202.657 23.7013 202.657 23.6739 202.659 23.6442C202.66 23.6145 202.663 23.5837 202.666 23.5529L202.034 24.74C202.019 24.7674 202.001 24.7879 201.978 24.8028C201.955 24.8176 201.928 24.8256 201.897 24.8256H201.843C201.812 24.8256 201.785 24.8176 201.762 24.8028C201.739 24.7879 201.72 24.7674 201.706 24.74L201.065 23.5483C201.068 23.5803 201.072 23.6111 201.073 23.6419C201.074 23.6727 201.075 23.7001 201.075 23.7264V25.079H200.731V22.9856H201.026C201.043 22.9856 201.058 22.9856 201.07 22.9867C201.083 22.9867 201.094 22.9901 201.105 22.9936C201.115 22.997 201.124 23.0038 201.133 23.0118C201.142 23.0198 201.15 23.0324 201.157 23.0461L201.783 24.2081C201.799 24.2389 201.815 24.2708 201.828 24.304V24.3051Z" fill="white"/>
<path d="M36.7598 46.4072C36.7598 46.2645 36.778 46.1287 36.8145 45.9974C36.8511 45.8661 36.9036 45.7428 36.9698 45.6298C37.036 45.5157 37.117 45.4118 37.2106 45.3171C37.3042 45.2235 37.4081 45.1436 37.5222 45.0762C37.6363 45.01 37.7585 44.9575 37.8897 44.921C38.0198 44.8845 38.1568 44.8662 38.2983 44.8662C38.4398 44.8662 38.5768 44.8845 38.7081 44.921C38.8393 44.9575 38.9626 45.01 39.0756 45.0762C39.1897 45.1424 39.2936 45.2223 39.3872 45.3171C39.4808 45.4107 39.5618 45.5157 39.628 45.6298C39.6942 45.7428 39.7467 45.8661 39.7832 45.9974C39.8198 46.1287 39.838 46.2645 39.838 46.4072C39.838 46.5498 39.8198 46.6834 39.7832 46.8147C39.7467 46.9459 39.6942 47.0692 39.628 47.1822C39.5618 47.2952 39.4808 47.3991 39.3872 47.4927C39.2936 47.5863 39.1897 47.6662 39.0756 47.7335C38.9614 47.7997 38.8393 47.8523 38.7081 47.8888C38.5768 47.9253 38.4398 47.9436 38.2983 47.9436C38.1568 47.9436 38.0198 47.9253 37.8897 47.8888C37.7585 47.8523 37.6363 47.7997 37.5222 47.7335C37.4081 47.6673 37.3042 47.5874 37.2106 47.4927C37.117 47.3991 37.036 47.2952 36.9698 47.1822C36.9036 47.0692 36.8511 46.9471 36.8145 46.8158C36.778 46.6845 36.7598 46.5487 36.7598 46.4072ZM37.0417 46.4072C37.0417 46.5875 37.0736 46.7565 37.1387 46.914C37.2038 47.0715 37.2928 47.2085 37.4058 47.3238C37.5188 47.4402 37.6523 47.5315 37.8053 47.5988C37.9582 47.6651 38.1225 47.6993 38.2995 47.6993C38.4764 47.6993 38.6419 47.6662 38.796 47.5988C38.95 47.5326 39.0847 47.4413 39.1989 47.3238C39.313 47.2085 39.402 47.0715 39.4682 46.914C39.5333 46.7565 39.5664 46.5887 39.5664 46.4072C39.5664 46.2862 39.5515 46.1697 39.5219 46.059C39.4922 45.9472 39.45 45.8444 39.3952 45.7474C39.3415 45.6504 39.2753 45.5636 39.1977 45.4837C39.1201 45.4061 39.0356 45.3376 38.942 45.2817C38.8496 45.2258 38.748 45.1812 38.6396 45.1504C38.5312 45.1207 38.4182 45.1048 38.2995 45.1048C38.1808 45.1048 38.0678 45.1207 37.9605 45.1504C37.8532 45.1812 37.7527 45.2246 37.6592 45.2817C37.5656 45.3376 37.4811 45.405 37.4058 45.4837C37.3304 45.5625 37.2654 45.6504 37.2106 45.7474C37.1558 45.8444 37.1147 45.9472 37.0851 46.059C37.0554 46.1709 37.0417 46.2862 37.0417 46.4072ZM38.0655 46.6594V47.3375H37.6192V45.4666H38.288C38.5483 45.4666 38.7389 45.5134 38.8599 45.6059C38.9809 45.6995 39.0413 45.833 39.0413 46.0065C39.0413 46.1298 39.0094 46.2382 38.9455 46.3307C38.8816 46.4231 38.7823 46.4916 38.6476 46.5339C38.6795 46.551 38.7058 46.5738 38.7263 46.6012C38.7469 46.6286 38.7686 46.6606 38.7891 46.696L39.1669 47.3363H38.7377C38.675 47.3363 38.6316 47.3135 38.6065 47.2667L38.3063 46.7188C38.2926 46.6994 38.2766 46.6845 38.2595 46.6743C38.2424 46.664 38.2161 46.6583 38.1819 46.6583H38.0666L38.0655 46.6594ZM38.0655 46.341H38.2515C38.3223 46.341 38.3805 46.3353 38.4273 46.3238C38.4729 46.3113 38.5083 46.2942 38.5346 46.2702C38.5597 46.2462 38.578 46.2177 38.5882 46.1823C38.5974 46.1481 38.6031 46.1081 38.6031 46.0636C38.6031 46.0191 38.5985 45.9825 38.5905 45.9494C38.5825 45.9175 38.5665 45.8901 38.5437 45.8684C38.5209 45.8467 38.4889 45.8307 38.4478 45.8205C38.4067 45.8102 38.3542 45.8045 38.2903 45.8045H38.0678V46.341H38.0655Z" fill="white"/>
<path d="M39.1169 39.7034C33.4843 49.0337 25.0816 54.459 23.2623 55.5594L23.0192 55.7101C22.9496 55.7443 22.9153 55.7683 22.9153 55.7683L22.5444 56L21.629 55.4316C19.473 54.0983 11.4298 48.7323 5.9707 39.7022C5.9707 39.7022 12.4034 31.8433 13.5973 30.1517C16.0192 26.6976 20.482 19.0704 21.7101 17.0192L21.3859 27.4978C19.6704 30.4302 15.5216 37.0027 12.7515 40.3517C12.5427 40.6063 12.4502 40.7923 12.4502 40.9887C12.473 41.0229 18.2563 47.9196 21.9303 49.7049L22.1849 49.8213L22.5558 49.9834L23.6218 49.4617C27.3073 47.3523 32.6158 41.0241 32.65 40.9887C32.65 40.7912 32.5575 40.6063 32.3487 40.3517C29.3937 36.7938 24.9892 29.9199 23.5397 27.4395L23.2623 17.042C24.3865 18.8615 29.0113 26.628 31.4915 30.1517C32.6854 31.8444 39.1181 39.7022 39.1181 39.7022L39.1169 39.7034Z" fill="white"/>
<path d="M14.8126 14.2146C12.1703 18.6651 9.05213 22.7219 5.0996 26.0949C4.9147 26.2456 4.78686 26.3495 4.683 26.4077C3.43093 22.0724 3.34989 19.7781 3.34989 13.7044C3.34989 13.7044 5.59837 10.6099 16.0761 9.75149L16.0875 9.74008C16.5052 9.68186 17.0268 9.64762 17.5941 9.60082C16.8065 10.9455 15.4962 13.0549 14.8126 14.2135V14.2146ZM22.0442 6.39103V3.51684L20.5605 5.67306C5.48195 6.05544 0 10.6909 0 10.6909C0 18.8044 1.21669 25.4466 3.0714 30.8594V30.8708L3.10564 30.9746C3.18668 31.2064 3.39555 31.7862 3.65007 32.4585C4.16026 33.8146 4.86676 35.577 5.22629 36.0051C5.36553 36.1671 6.39732 35.1706 6.39732 35.1706C16.1913 25.2491 21.1973 11.7102 21.9392 9.70583L22.0431 6.39103H22.0442Z" fill="white"/>
<path d="M40.2862 26.4088C40.1823 26.3506 40.0545 26.2467 39.8685 26.096C35.9159 22.723 32.7989 18.6663 30.1566 14.2157C29.473 13.0572 28.1627 10.9466 27.3751 9.6031C27.9435 9.6499 28.464 9.68414 28.8817 9.74236L28.8931 9.75377C39.3708 10.611 41.6193 13.7066 41.6193 13.7066C41.6193 19.7803 41.5383 22.0758 40.2862 26.4099V26.4088ZM23.0631 9.79829C23.9202 12.0938 28.916 25.3883 38.5707 35.1706C38.5707 35.1706 39.6025 36.1671 39.7418 36.0051C40.1013 35.5759 40.8078 33.8146 41.318 32.4585C41.5725 31.7862 41.7814 31.2064 41.8624 30.9746C41.8738 30.9404 41.8852 30.905 41.8967 30.8708V30.8594C43.7514 25.4466 44.9681 18.8044 44.9681 10.6909C44.9681 10.6909 39.4861 6.0543 24.4076 5.67191L22.9238 3.51569V4.70966L23.0631 9.79829Z" fill="white"/>
<path d="M22.0442 6.39103L21.9404 9.70583ZM23.0646 9.79829L22.9254 4.70966Z" fill="white"/>
<path d="M22.5099 0L23.5223 37.5711L28.9894 38.7514L23.9138 39.5105L22.4483 48.536L22.4369 48.5257L20.9725 39.5002L15.8957 38.7411L21.3628 37.5597L22.5339 0H22.5099Z" fill="white"/>
</g>
<defs>
<clipPath id="clip0_862_414">
<rect width="203" height="56" fill="white"/>
</clipPath>
</defs>
</svg>
