<svg width="49" height="48" viewBox="0 0 49 48" fill="none" xmlns="http://www.w3.org/2000/svg">
<path d="M0.666626 24V9.77777C0.666626 4.37796 5.04459 0 10.4444 0H24.6666C25.1575 0 25.5555 0.397969 25.5555 0.888888C25.5555 1.37981 25.1575 1.77778 24.6666 1.77778H10.4444C6.02643 1.77778 2.4444 5.3598 2.4444 9.77777V24C2.4444 24.4909 2.04643 24.8889 1.55551 24.8889C1.06459 24.8889 0.666626 24.4909 0.666626 24Z" fill="#1C1C1C"/>
<path d="M46.8888 38.2224V24.0002C46.8888 23.5093 47.2868 23.1113 47.7777 23.1113C48.2686 23.1113 48.6666 23.5093 48.6666 24.0002V38.2224C48.6666 43.6222 44.2886 48.0002 38.8888 48.0002H24.6666C24.1757 48.0002 23.7777 47.6022 23.7777 47.1113C23.7777 46.6204 24.1757 46.2224 24.6666 46.2224H38.8888C43.3068 46.2224 46.8888 42.6404 46.8888 38.2224Z" fill="#1C1C1C"/>
<path d="M0.666626 38.2224V24.0002C0.666626 23.5093 1.06459 23.1113 1.55551 23.1113C2.04643 23.1113 2.4444 23.5093 2.4444 24.0002V38.2224C2.4444 42.6404 6.02643 46.2224 10.4444 46.2224H24.6666C25.1575 46.2224 25.5555 46.6204 25.5555 47.1113C25.5555 47.6022 25.1575 48.0002 24.6666 48.0002H10.4444C5.04459 48.0002 0.666626 43.6222 0.666626 38.2224Z" fill="#1C1C1C"/>
<path d="M23.7777 30.9425V24.0002C23.7777 23.5093 24.1757 23.1113 24.6666 23.1113C25.1575 23.1113 25.5555 23.5093 25.5555 24.0002V30.9425C25.5555 31.4334 25.1575 31.8314 24.6666 31.8314C24.1757 31.8314 23.7777 31.4334 23.7777 30.9425Z" fill="#1C1C1C"/>
<path d="M23.7777 23.9991V17.0569C23.7777 16.5659 24.1757 16.168 24.6666 16.168C25.1575 16.168 25.5555 16.5659 25.5555 17.0569V23.9991C25.5555 24.49 25.1575 24.888 24.6666 24.888C24.1757 24.888 23.7777 24.49 23.7777 23.9991Z" fill="#1C1C1C"/>
<path d="M23.7777 47.1105V40.1682C23.7777 39.6773 24.1757 39.2793 24.6666 39.2793C25.1575 39.2793 25.5555 39.6773 25.5555 40.1682V47.1105C25.5555 47.6013 25.1575 47.9993 24.6666 47.9993C24.1757 47.9993 23.7777 47.6013 23.7777 47.1105Z" fill="#1C1C1C"/>
<path d="M23.7777 7.83115V0.888888C23.7777 0.397969 24.1757 0 24.6666 0C25.1575 0 25.5555 0.397969 25.5555 0.888888V7.83115C25.5555 8.32205 25.1575 8.72004 24.6666 8.72004C24.1757 8.72004 23.7777 8.32205 23.7777 7.83115Z" fill="#1C1C1C"/>
<path d="M24.6667 23.1113L24.7125 23.1124C25.1821 23.1363 25.5556 23.5247 25.5556 24.0002C25.5556 24.4758 25.1821 24.8642 24.7125 24.888L24.6667 24.8891H17.7244C17.2335 24.8891 16.8355 24.4911 16.8355 24.0002C16.8355 23.5093 17.2335 23.1113 17.7244 23.1113H24.6667Z" fill="#1C1C1C"/>
<path d="M8.49778 23.1113L8.54357 23.1124C9.01319 23.1363 9.38667 23.5247 9.38667 24.0002C9.38667 24.4758 9.01319 24.8642 8.54357 24.888L8.49778 24.8891H1.55551C1.06459 24.8891 0.666626 24.4911 0.666626 24.0002C0.666626 23.5093 1.06459 23.1113 1.55551 23.1113H8.49778Z" fill="#1C1C1C"/>
<path d="M47.7777 23.1113L47.8235 23.1124C48.2932 23.1363 48.6666 23.5247 48.6666 24.0002C48.6666 24.4758 48.2932 24.8642 47.8235 24.888L47.7777 24.8891H40.8355C40.3446 24.8891 39.9466 24.4911 39.9466 24.0002C39.9466 23.5093 40.3446 23.1113 40.8355 23.1113H47.7777Z" fill="#1C1C1C"/>
<path d="M31.6089 23.1113L31.6547 23.1124C32.1243 23.1363 32.4978 23.5247 32.4978 24.0002C32.4978 24.4758 32.1243 24.8642 31.6547 24.888L31.6089 24.8891H24.6666C24.1757 24.8891 23.7777 24.4911 23.7777 24.0002C23.7777 23.5093 24.1757 23.1113 24.6666 23.1113H31.6089Z" fill="#1C1C1C"/>
<path d="M15.7777 35.5562C15.7777 32.1208 18.5646 29.334 21.9999 29.334C23.0658 29.334 24.0658 29.6059 24.9398 30.0773L25.113 30.1743L25.152 30.1981C25.5462 30.4546 25.6741 30.9781 25.4353 31.3893C25.1964 31.8005 24.6784 31.9488 24.2603 31.7335L24.2202 31.7116L24.0963 31.6421C23.4707 31.3047 22.7591 31.1118 21.9999 31.1118C19.5464 31.1118 17.5555 33.1027 17.5555 35.5562C17.5555 38.0097 19.5464 40.0006 21.9999 40.0006C22.8097 40.0006 23.5653 39.7811 24.2202 39.4008C24.6447 39.1543 25.1887 39.2986 25.4353 39.7231C25.6818 40.1476 25.5375 40.6916 25.113 40.9381C24.199 41.4689 23.1369 41.7784 21.9999 41.7784C18.5646 41.7784 15.7777 38.9916 15.7777 35.5562Z" fill="#1C1C1C"/>
<path d="M29.9999 26.667C29.9999 25.5301 30.3094 24.468 30.8402 23.554C31.0868 23.1295 31.6308 22.9852 32.0553 23.2317C32.4798 23.4783 32.6241 24.0223 32.3775 24.4468C31.9972 25.1016 31.7777 25.8573 31.7777 26.667C31.7777 29.1206 33.7686 31.1115 36.2222 31.1115C38.6757 31.1115 40.6666 29.1206 40.6666 26.667C40.6666 25.9079 40.4737 25.1963 40.1362 24.5707L40.0668 24.4468L40.0448 24.4066C39.8296 23.9885 39.9778 23.4706 40.389 23.2317C40.8003 22.9929 41.3238 23.1208 41.5802 23.5149L41.6041 23.554L41.7011 23.7271C42.1724 24.6011 42.4444 25.6012 42.4444 26.667C42.4444 30.1024 39.6575 32.8892 36.2222 32.8892C32.7868 32.8892 29.9999 30.1024 29.9999 26.667Z" fill="#1C1C1C"/>
<path d="M31.7777 12.4449C31.7777 9.99135 29.7868 8.00043 27.3333 8.00043C26.5236 8.00043 25.7679 8.21996 25.113 8.60026C24.6885 8.84677 24.1445 8.70248 23.898 8.27799C23.6514 7.85348 23.7957 7.30948 24.2202 7.06293C25.1343 6.53212 26.1964 6.22266 27.3333 6.22266C30.7687 6.22266 33.5555 9.00951 33.5555 12.4449C33.5555 15.8802 30.7687 18.6671 27.3333 18.6671C26.2674 18.6671 25.2674 18.3952 24.3934 17.9238L24.2202 17.8268L24.1812 17.8029C23.787 17.5465 23.6591 17.023 23.898 16.6118C24.1445 16.1873 24.6885 16.043 25.113 16.2895C25.7679 16.6698 26.5236 16.8893 27.3333 16.8893C29.7868 16.8893 31.7777 14.8984 31.7777 12.4449Z" fill="#1C1C1C"/>
<path d="M17.5555 21.3335C17.5555 18.88 15.5646 16.8891 13.1111 16.8891C10.6575 16.8891 8.66663 18.88 8.66663 21.3335C8.66663 22.0927 8.85953 22.8043 9.19701 23.4299L9.26646 23.5538L9.28837 23.594C9.50364 24.012 9.35542 24.53 8.94419 24.7689C8.53295 25.0077 8.00946 24.8798 7.753 24.4857L7.72913 24.4466L7.63213 24.2734C7.16079 23.3995 6.88885 22.3994 6.88885 21.3335C6.88885 17.8982 9.67571 15.1113 13.1111 15.1113C16.5464 15.1113 19.3333 17.8982 19.3333 21.3335C19.3333 22.4705 19.0238 23.5326 18.493 24.4466C18.2465 24.8711 17.7025 25.0154 17.2779 24.7689C16.8535 24.5223 16.7092 23.9783 16.9557 23.5538C17.336 22.8989 17.5555 22.1433 17.5555 21.3335Z" fill="#1C1C1C"/>
<path d="M27.3333 0C27.8242 0 28.2221 0.397969 28.2221 0.888888C28.2221 1.37981 27.8242 1.77778 27.3333 1.77778H24.6666C24.1757 1.77778 23.7777 1.37981 23.7777 0.888888C23.7777 0.397969 24.1757 0 24.6666 0H27.3333Z" fill="#1C1C1C"/>
<path d="M46.8888 18.6844V16.4577C46.8888 15.9668 47.2868 15.5688 47.7777 15.5688C48.2686 15.5688 48.6665 15.9668 48.6666 16.4577V18.6844C48.6666 19.1754 48.2686 19.5733 47.7777 19.5733C47.2868 19.5733 46.8888 19.1753 46.8888 18.6844ZM46.8888 12.0043V9.77777C46.8888 8.69146 46.6727 7.65774 46.282 6.7157C46.094 6.26225 46.3093 5.7423 46.7627 5.55425C47.2161 5.36623 47.7361 5.5813 47.9242 6.03472C48.4028 7.18883 48.6666 8.45365 48.6666 9.77777V12.0043C48.6666 12.4952 48.2686 12.8932 47.7777 12.8932C47.2868 12.8932 46.8888 12.4952 46.8888 12.0043ZM38.8888 0C40.2129 0 41.4777 0.263767 42.6318 0.742404L42.6737 0.761067C43.0984 0.963012 43.2945 1.46482 43.1123 1.90408C42.9242 2.35745 42.4043 2.57255 41.9509 2.38455L41.7731 2.31337C40.8794 1.96771 39.9072 1.77778 38.8888 1.77778H37.3239C36.833 1.77778 36.435 1.37981 36.435 0.888888C36.435 0.397969 36.833 0 37.3239 0H38.8888ZM34.1939 0L34.2395 0.00108507C34.7092 0.024858 35.0828 0.413287 35.0828 0.888888C35.0828 1.36449 34.7092 1.75292 34.2395 1.77669L34.1939 1.77778H32.6288C32.1379 1.77778 31.7399 1.37981 31.7399 0.888888C31.7399 0.397969 32.1379 0 32.6288 0H34.1939Z" fill="#1C1C1C"/>
<path d="M46.8888 24.0009V21.3342C46.8888 20.8433 47.2868 20.4453 47.7777 20.4453C48.2686 20.4453 48.6666 20.8433 48.6666 21.3342V24.0009C48.6666 24.4918 48.2686 24.8898 47.7777 24.8898C47.2868 24.8898 46.8888 24.4918 46.8888 24.0009Z" fill="#1C1C1C"/>
</svg>
