<svg width="120" height="18" viewBox="0 0 120 18" fill="none" xmlns="http://www.w3.org/2000/svg">
<g clip-path="url(#clip0_504_101)">
<path d="M57.0244 4.89913C57.0244 7.31349 56.7814 14.7915 56.7814 14.7915C56.7814 16.239 57.2648 16.8836 58.6331 16.8836V17.5281H53.2445V16.8808C54.6101 16.8808 55.3366 16.239 55.3366 14.7887L55.82 2.56396C55.4158 1.60259 55.0143 1.27758 53.9682 1.19837V0.635748H58.0705L62.413 12.0576L66.8376 0.635748H70.5356V1.19837C69.4895 1.19837 68.9269 1.68179 68.9269 2.80704L69.4103 14.6303C69.4103 16.3974 69.7299 16.8808 71.1774 16.8808V17.5254H64.9831V16.8808C66.1903 16.8808 66.7529 16.4821 66.6737 14.6303C66.6737 14.6303 66.4334 6.34665 66.3514 4.89913L63.3744 13.1036C62.9285 14.2598 62.5527 15.4418 62.2492 16.6432L61.2823 16.7224C61.042 15.8375 60.3974 14.2288 60.3974 14.2288C60.3974 14.2288 57.9093 7.23156 57.0244 4.89913ZM51.9554 17.6073C51.6331 17.5281 51.3135 17.5281 50.9885 17.5281C50.3467 17.5281 49.2187 17.8477 47.8531 17.8477C42.6256 17.8477 38.7637 14.7123 38.7637 8.91943C38.7637 4.01422 42.3825 0.231533 47.9323 0.231533C49.2187 0.231533 50.6662 0.474608 51.8734 0.958027C52.1138 0.714952 52.1957 0.556544 52.436 0.313468H52.9195C52.8403 1.19837 52.518 4.09616 52.518 4.09616H52.0346C51.7123 2.40555 50.8301 1.28031 48.0143 1.28031C44.6358 1.28031 41.5796 3.93502 41.5796 8.84295C41.5796 14.3927 44.715 16.8044 48.1754 16.8044C50.4286 16.8044 51.7942 15.518 52.6791 13.9093L53.2417 14.1496L51.9554 17.6073ZM36.7563 3.77115H36.1937C36.1145 2.24168 35.6311 1.761 34.4239 1.761H32.0915V14.39C32.0915 16.4821 32.4929 16.8808 33.8613 16.8808V17.5254H27.8308V16.8808C29.1964 16.8808 29.6006 16.4821 29.6006 14.3081V1.761H27.2655C25.736 1.761 25.4956 2.16248 25.0942 3.77115H24.5288L24.9303 0.152328L25.3318 0.231533C25.4929 0.633017 25.8152 0.633017 26.7793 0.633017H34.5796C36.0271 0.633017 36.3494 0.633017 36.6716 0.149597H37.1551L36.7563 3.77115Z" fill="#808080"/>
<path d="M19.7055 17.9267C18.5775 17.9267 17.6953 17.7655 17.0508 17.5279C16.5681 17.4142 16.107 17.2233 15.6852 16.9626C15.4719 17.1834 15.2824 17.4259 15.1198 17.6863L14.6364 17.5279L15.0379 13.7452L15.6005 13.8244C15.9228 15.5942 17.13 16.8806 19.6208 16.8806C21.5518 16.8806 22.8382 15.272 22.8382 13.5049C22.8382 12.0574 22.2755 11.3336 20.3446 9.88608C19.7055 9.48186 19.1429 9.15958 18.6594 8.76083C16.8896 7.63285 15.7617 6.34646 15.7617 4.25438C15.7617 1.84001 17.7718 0.231346 20.4265 0.231346C21.956 0.231346 22.9201 0.714765 23.2424 0.873174L23.8077 0.231346L24.2092 0.31055L23.8077 3.77096L23.2424 3.69175C23.2424 2.08309 22.2783 1.35932 20.6696 1.35932C19.1429 1.35932 18.0149 2.16502 18.0149 3.69175C18.0149 5.05735 19.0609 5.94225 20.2681 6.74795C20.9099 7.14943 21.3934 7.47171 21.8768 7.79399C24.6926 9.80414 25.3345 11.0905 25.3345 13.0215C25.3345 15.8346 23.1632 17.9267 19.7055 17.9267ZM10.5342 3.77096H9.89235C9.89235 2.32343 9.24779 1.76081 7.9614 1.76081H4.34258V8.11354H6.67501C7.88219 8.11354 8.12254 7.47171 8.28368 6.42567H8.8463V10.9294H8.28368C8.12254 9.72494 7.88219 9.24152 6.59581 9.24152H4.34258V14.6301C4.34258 16.6403 4.826 16.8806 6.11239 16.8806V17.5252H0V16.8806C1.52673 16.8806 1.76708 16.4819 1.76708 14.6301V2.80685C1.76708 1.6816 1.28366 1.19818 0 1.19818V0.635561H8.36288C9.81041 0.635561 10.13 0.556356 10.373 0.072937H10.9357L10.5342 3.77096ZM97.3175 4.7378V14.3898C97.3175 16.4819 97.8009 16.8806 99.0873 16.8806V17.5252H89.5965V16.8806C90.3202 16.8806 90.9621 16.6403 90.9621 16.1569C90.9621 15.8346 90.8829 15.272 90.7217 14.7093L89.9952 12.3769H84.6885C84.6093 12.6965 83.6425 15.3512 83.6425 16.0749C83.6425 16.7168 84.3662 16.8779 84.8497 16.8779V17.5225H80.4252V16.8806C81.2281 16.8806 81.8727 16.8014 82.4353 15.1136L86.5375 2.00388C86.2999 1.43853 85.9777 1.27739 85.415 1.19818V0.635561H89.0338L93.3764 14.3898C93.7779 15.8346 94.1794 16.5611 94.824 16.8806C95.7881 16.5611 96.0284 16.2388 96.0284 14.3898V2.80685C95.3046 1.84001 95.2254 1.19818 93.8571 1.19818V0.635561H97.9594L104.716 12.1366V3.36947C104.716 1.6024 104.315 1.19818 102.946 1.19818V0.635561H111.954V1.19818C111.391 1.19818 110.908 1.43853 110.908 2.00388C110.908 2.40264 111.069 2.80685 111.227 3.29027L113.8 8.84003L116.294 3.44868C116.695 2.72492 116.777 2.32343 116.777 1.92195C116.777 1.43853 116.455 1.19818 115.731 1.19818V0.635561H119.995V1.19818C118.949 1.19818 118.307 2.16502 117.823 3.29027L114.527 10.0472V14.4717C114.527 16.3999 115.01 16.8834 116.294 16.8834V17.5279H110.181V16.8806C111.471 16.8806 111.951 16.3972 111.951 14.469V10.689L108.412 3.21107C107.77 1.76354 107.527 1.44126 107.125 1.20092C106.322 1.5232 106.079 2.08582 106.079 3.37221V15.7581C106.079 15.7581 106.158 16.725 106.24 17.8502L105.194 17.9294L97.3175 4.7378ZM87.264 3.9321L85.0135 11.2517H89.6784L87.264 3.9321Z" fill="#808080"/>
<path d="M77.2924 11.2519H76.0852V14.7123C76.0852 16.4821 76.5686 16.8836 77.9342 16.8836V17.5281H71.7399V16.8808C73.029 16.8808 73.5097 16.3974 73.5097 14.6303V3.29045C73.5097 1.52338 73.029 1.19837 71.7399 1.19837V0.635742H76.4048C80.9085 0.635742 83.5632 2.00407 83.5632 5.70209C83.5659 9.56398 80.3486 11.2519 77.2924 11.2519ZM76.4867 1.76099H76.0852V10.0447H76.809C79.4637 10.0447 80.832 8.84022 80.832 5.78129C80.832 2.72237 79.6221 1.76099 76.4867 1.76099ZM49.2213 14.308C46.1651 14.308 44.0757 12.1368 44.0757 9.00136C44.0757 6.02437 46.247 3.69467 49.2213 3.69467C52.1163 3.69467 54.2876 5.94516 54.2876 9.00136C54.2876 11.9756 52.0371 14.308 49.2213 14.308ZM49.2213 4.65878C47.1292 4.65878 46.4054 6.66893 46.4054 9.00136C46.4054 11.1726 47.05 13.3467 49.2213 13.3467C51.3134 13.3467 51.9552 11.1726 51.9552 8.92215C51.9552 6.74813 51.1522 4.65878 49.2213 4.65878ZM13.8334 13.3439V12.7786C14.6363 12.7786 14.7975 12.5382 14.7975 12.2979C14.7916 12.0219 14.7371 11.7492 14.6363 11.4922C14.6363 11.4922 14.4752 10.8504 14.314 10.3669H11.1786L10.8591 11.413C10.7586 11.6691 10.7041 11.9409 10.698 12.216C10.698 12.5382 11.0202 12.7786 11.5009 12.7786V13.3439H8.36279V12.7786C9.16576 12.7786 9.48804 12.5382 9.81032 11.6533L12.2247 4.4157C12.1428 4.09615 11.9024 3.85308 11.4217 3.85308V3.29045H13.9945C16.0866 9.40284 16.6492 11.0115 16.6492 11.0115C17.0507 12.3798 17.4522 12.7786 18.0967 12.7786V13.3439H13.8334ZM12.7054 5.54095L11.5009 9.48204H13.9945L12.7054 5.54095Z" fill="#808080"/>
</g>
<defs>
<clipPath id="clip0_504_101">
<rect width="120" height="17.856" fill="white" transform="translate(0 0.0720215)"/>
</clipPath>
</defs>
</svg>
